<svg width="120" height="120" viewBox="0 0 120 120" fill="none" xmlns="http://www.w3.org/2000/svg">
<circle cx="60" cy="60" r="59" fill="url(#paint0_linear_2204_87635)" stroke="url(#paint1_linear_2204_87635)" stroke-width="2"/>
<g clip-path="url(#clip0_2204_87635)">
<path d="M69.0305 95.7264C69.0305 94.8651 69.0305 94.1071 69.0305 93.2899C63.2758 93.2899 57.5533 93.2899 51.7663 93.2899C51.7663 94.0698 51.7663 94.8464 51.7663 95.7654C52.0478 95.7654 52.3445 95.7654 52.6413 95.7654C56.0341 95.7654 59.4252 95.7654 62.818 95.7671C63.0723 95.7671 63.3334 95.7434 63.5793 95.7959C64.1388 95.9146 64.5831 96.291 64.4508 96.8489C64.3525 97.2609 63.9303 97.6203 63.5895 97.934C63.4623 98.051 63.1537 97.9781 62.9282 97.9781C58.9708 97.9798 55.0133 97.9815 51.0542 97.9781C49.8215 97.9781 49.4824 97.6458 49.474 96.4368C49.4655 95.2211 49.4706 94.0054 49.4723 92.7914C49.474 91.4044 49.5893 91.2501 50.922 90.8907C50.922 90.0073 50.9508 89.1052 50.9016 88.2083C50.8897 87.9828 50.6778 87.6996 50.476 87.5623C46.8509 85.0715 45.837 81.4786 46.1388 77.333C46.1846 76.6904 46.5525 76.2631 47.2223 76.2546C47.9395 76.2461 48.3023 76.6836 48.3413 77.3754C48.4024 78.5012 48.3379 79.6457 48.5058 80.7529C48.9856 83.9168 51.5646 86.528 54.7421 86.784C57.4651 87.0044 60.2204 86.9281 62.957 86.8603C64.5322 86.8213 65.775 85.9769 66.7093 84.629C65.2036 85.3241 63.7285 85.4564 62.3127 84.4984C60.8681 83.5201 60.4137 82.1128 60.6273 80.3375C59.2065 80.3375 57.8008 80.3409 56.3969 80.3358C55.1829 80.3324 54.8234 79.9848 54.8184 78.7793C54.8099 76.5751 54.8031 74.3708 54.8251 72.1666C54.8302 71.6647 54.6929 71.3646 54.2453 71.0764C52.604 70.0183 51.7867 68.4584 51.7613 66.517C51.7324 64.3128 51.7579 62.1086 51.7511 59.9043C51.7477 58.6225 51.1458 57.8917 50.0979 57.8697C49.0399 57.8476 48.3532 58.6378 48.3498 59.9162C48.3447 63.9296 48.3481 67.943 48.3464 71.9564C48.3464 72.2107 48.3583 72.4667 48.3379 72.7194C48.2837 73.3806 47.9208 73.7757 47.2528 73.7825C46.5864 73.7893 46.1846 73.3993 46.1439 72.7448C46.0964 72.0123 46.1269 71.2764 46.1269 70.5406C46.1269 66.8663 46.1134 63.192 46.1354 59.5177C46.1456 57.8544 47.2053 56.3979 48.7025 55.8638C50.2793 55.3026 52.002 55.7655 53.0855 57.0405C53.74 57.812 53.9892 58.7124 53.9858 59.7093C53.9774 61.9136 53.9502 64.1195 54.0045 66.322C54.0214 67.0206 54.2741 67.7124 54.4182 68.4076C54.5199 68.3906 54.6217 68.3753 54.7234 68.3584C54.7234 62.78 54.7234 57.2016 54.7234 51.5283C54.4046 51.5283 54.1011 51.5283 53.7993 51.5283C49.6723 51.5283 45.5454 51.5317 41.4167 51.5266C38.6733 51.5232 37.0133 49.8938 37.0082 47.1537C36.9947 40.2291 36.9947 33.3044 37.0082 26.3798C37.015 23.6669 38.7123 22.0103 41.4302 22.0035C42.8715 22.0001 44.3144 22.0001 45.7556 22.0035C46.7136 22.0069 47.2646 22.4037 47.285 23.0921C47.307 23.8093 46.7441 24.2196 45.7217 24.2213C44.2805 24.2247 42.8375 24.2145 41.3963 24.2247C39.9619 24.2366 39.243 24.9199 39.2413 26.3628C39.2277 33.2875 39.2277 40.2121 39.2396 47.1368C39.243 48.6306 39.9466 49.3037 41.4421 49.3037C54.0791 49.3071 66.7144 49.3071 79.3514 49.3037C80.7909 49.3037 81.5183 48.6187 81.5217 47.1876C81.5352 40.2342 81.5369 33.2824 81.52 26.3289C81.5166 24.8928 80.7604 24.2247 79.2445 24.223C70.0309 24.2213 60.8138 24.223 51.5985 24.2213C50.315 24.2213 49.7825 23.8822 49.8097 23.0819C49.8351 22.3206 50.3573 22.0018 51.5832 22.0018C60.7715 22.0018 69.958 22.0001 79.1462 22.0018C82.1372 22.0018 83.7581 23.6177 83.7598 26.6137C83.7632 33.3977 83.7649 40.1799 83.7598 46.9638C83.7581 49.9311 82.1575 51.5232 79.1937 51.5249C75.1227 51.5283 71.0516 51.5249 66.9806 51.5249C66.6754 51.5249 66.3702 51.5249 66.0107 51.5249C66.0107 53.2357 66.0107 54.8617 66.0107 56.6217C66.711 56.2589 67.3553 55.8859 68.0284 55.5824C70.3564 54.5328 72.9388 55.857 73.4695 58.3563C73.7764 59.7992 73.3474 60.9607 71.9689 62.3307C72.9235 63.1852 73.5763 64.2246 73.5661 65.5438C73.556 66.8307 72.9795 67.8786 72.0045 68.7043C74.1986 70.9356 73.9815 73.2569 71.9927 75.1949C73.0778 76.1732 73.7289 77.3516 73.522 78.8573C73.3372 80.207 72.6421 81.2599 71.4128 81.8483C70.4429 82.3145 69.9834 83.0029 69.5307 84.0016C68.4964 86.2906 69.1119 88.6084 68.8677 90.9585C69.2187 90.9822 69.4629 91.0094 69.7087 91.0144C70.9889 91.0348 71.2873 91.3332 71.2924 92.6371C71.2975 93.9647 71.306 95.294 71.2873 96.6217C71.2737 97.5729 70.8821 97.9544 69.9461 97.9764C69.4086 97.9883 68.8711 97.99 68.3353 97.9764C67.5316 97.9561 66.9857 97.4949 67.0365 96.8455C67.0959 96.0943 67.574 95.7722 68.2997 95.7654C68.5218 95.7637 68.7406 95.7417 69.0305 95.7264ZM62.0618 65.2216C61.7091 64.7519 61.2869 64.3213 61.0156 63.8092C59.9983 61.8831 60.7291 59.6822 62.7027 58.5038C63.0689 58.2851 63.6522 57.9782 63.6641 57.6933C63.7472 55.6705 63.7082 53.6426 63.7082 51.5724C61.4565 51.5724 59.2997 51.5724 57.1243 51.5724C57.1243 60.4367 57.1243 69.2536 57.1243 78.0587C58.7995 78.0587 60.3933 78.0587 62.2025 78.0587C61.0817 77.121 60.5527 76.063 60.5663 74.7846C60.5816 73.4993 61.1716 72.4667 62.1449 71.6647C60.0322 69.3588 60.0271 67.8124 62.0618 65.2216ZM69.5697 63.8652C69.39 63.916 69.0966 63.9449 68.8576 64.0754C67.101 65.0385 65.3376 65.9931 63.6115 67.0087C62.7824 67.4954 62.5823 68.4211 63.0096 69.218C63.4453 70.0302 64.383 70.3422 65.2715 69.9115C65.9565 69.5792 66.6059 69.1773 67.2705 68.8026C68.3523 68.1922 69.4476 67.6056 70.5073 66.9596C71.2042 66.5357 71.4942 65.8778 71.2466 65.0673C71.0126 64.306 70.4531 63.9364 69.5697 63.8652ZM64.5305 63.7143C64.6577 63.6854 64.812 63.6871 64.9307 63.621C66.8805 62.5409 68.8508 61.4914 70.76 60.3418C71.4399 59.9332 71.4975 58.9667 71.0872 58.28C70.6532 57.5577 69.7799 57.1914 69.039 57.5814C67.1654 58.5699 65.3105 59.5974 63.4945 60.686C62.8451 61.076 62.6213 61.7813 62.9028 62.5511C63.1775 63.3022 63.7438 63.6515 64.5305 63.7143ZM64.5678 82.9402C64.6984 82.9097 64.9425 82.9063 65.1307 82.8029C66.9585 81.7906 68.7948 80.7936 70.5887 79.7254C71.3755 79.2574 71.5365 78.3266 71.1093 77.5687C70.6905 76.8243 69.7698 76.4462 68.9932 76.8548C67.1434 77.8247 65.3155 78.8386 63.5216 79.9068C62.8739 80.2934 62.6162 80.9835 62.8875 81.7584C63.1486 82.4993 63.6759 82.9046 64.5678 82.9402ZM64.5203 76.514C64.639 76.4954 64.7984 76.5089 64.9137 76.4445C66.8856 75.3509 68.8813 74.2962 70.8007 73.1195C71.484 72.7007 71.4908 71.7326 71.0482 71.056C70.6091 70.3829 69.7613 70.0268 69.0509 70.4015C67.1552 71.4036 65.2816 72.4532 63.447 73.5604C62.8282 73.9334 62.6366 74.6269 62.8926 75.361C63.1571 76.119 63.7132 76.4767 64.5203 76.514ZM53.2042 90.9432C57.7466 90.9432 62.1872 90.9432 66.611 90.9432C66.611 89.9276 66.611 88.9866 66.611 87.8794C64.7323 89.1832 62.7061 89.1985 60.6646 89.1595C58.1925 89.112 55.7204 89.0832 53.2042 89.0459C53.2042 89.5885 53.2042 90.2531 53.2042 90.9432Z" fill="#5D7592"/>
<path d="M50.8271 38.0905C51.4257 37.553 51.9886 37.0477 52.6617 36.4441C53.8825 37.7565 55.178 39.1502 56.4767 40.5473C60.4969 36.5153 64.3187 32.68 68.188 28.7988C68.8238 29.4974 69.363 30.0891 70.0226 30.8115C69.4562 31.3303 68.7916 31.8983 68.1727 32.5138C64.7697 35.9015 61.3803 39.3028 57.9841 42.6973C56.9227 43.757 56.4327 43.757 55.3712 42.7024C54.0284 41.3697 52.6906 40.0302 51.3545 38.6907C51.1764 38.5144 51.0238 38.316 50.8271 38.0905Z" fill="#3A9C3E"/>
</g>
<defs>
<linearGradient id="paint0_linear_2204_87635" x1="15" y1="24" x2="100" y2="101" gradientUnits="userSpaceOnUse">
<stop stop-color="#F4F4F4"/>
<stop offset="0.0001" stop-color="#F9F8F8"/>
<stop offset="1" stop-color="white"/>
</linearGradient>
<linearGradient id="paint1_linear_2204_87635" x1="20" y1="16" x2="103" y2="109" gradientUnits="userSpaceOnUse">
<stop offset="0.00801165" stop-color="white"/>
<stop offset="1" stop-color="#F4F4F4"/>
</linearGradient>
<clipPath id="clip0_2204_87635">
<rect width="46.7635" height="76" fill="white" transform="translate(37 22)"/>
</clipPath>
</defs>
</svg>
