<svg width="40" height="44" viewBox="0 0 40 44" fill="none" xmlns="http://www.w3.org/2000/svg">
<path d="M24.1787 2.27832C22.7511 2.27832 21.4813 2.27832 20.2093 2.27832C15.3243 2.27832 10.437 2.27606 5.55203 2.28057C3.19748 2.28283 2.26603 3.20751 2.26603 5.54176C2.26377 16.5161 2.26377 27.4905 2.26603 38.4649C2.26603 40.7924 3.19747 41.7035 5.57007 41.7035C11.5083 41.7058 17.4466 41.7035 23.3848 41.7058C23.7231 41.7058 24.1471 41.5975 24.3794 41.7576C24.756 42.0193 25.2477 42.4613 25.2477 42.8267C25.2477 43.1965 24.7583 43.6295 24.3929 43.916C24.2012 44.0648 23.8111 43.9701 23.5111 43.9724C17.4601 43.9746 11.4091 43.9791 5.35807 43.9724C1.97509 43.9678 0.00169149 41.9719 0.00169149 38.5596C-0.000563829 27.5085 -0.000563829 16.4597 0.00169149 5.4087C0.0039468 1.99415 1.97284 0.0117255 5.37386 0.00947023C11.9526 0.00044896 18.5291 -0.00631699 25.1056 0.00947023C30.3199 0.0207468 34.0412 3.7533 34.057 8.96308C34.066 12.2333 34.0502 15.5035 34.066 18.7715C34.0705 19.6285 33.9871 20.4855 32.9135 20.4517C31.8806 20.4178 31.7859 19.5676 31.7904 18.7128C31.8084 15.826 31.7971 12.9392 31.7971 9.94639C29.6117 9.88099 27.4196 10.1358 25.7033 8.45338C23.9599 6.74836 24.2215 4.55393 24.1787 2.27832ZM26.6122 2.49257C25.913 6.63108 27.5233 8.24138 31.5468 7.51065C31.425 5.18542 29.2554 2.94815 26.6122 2.49257Z" fill="#C3D3EA"/>
<path d="M34.0593 30.687C34.0593 34.3992 34.0593 38.1137 34.0593 41.826C34.0593 42.1643 34.1743 42.5725 34.0277 42.8251C33.7774 43.2536 33.412 43.8084 32.9971 43.9076C32.3362 44.0678 31.892 43.5581 31.8108 42.8657C31.7679 42.4958 31.795 42.1146 31.795 41.7403C31.795 38.0709 31.795 34.4015 31.795 30.7343C31.6845 30.6554 31.5717 30.5742 31.4612 30.4953C30.5906 31.4515 29.7246 32.41 28.8473 33.3618C28.5924 33.6369 28.3218 33.8985 28.0399 34.1466C27.4963 34.6247 26.8378 34.6586 26.4792 34.0744C26.2559 33.7113 26.2491 32.8881 26.5063 32.613C28.3263 30.6667 30.232 28.7993 32.1333 26.9273C32.6791 26.3883 33.2857 26.4334 33.827 26.9724C35.6651 28.7993 37.4987 30.6306 39.3232 32.4687C39.851 33.0009 39.9231 33.6279 39.3751 34.1647C38.8068 34.7217 38.2091 34.5345 37.6971 34.0068C36.5785 32.8521 35.4644 31.6906 34.348 30.5336C34.251 30.581 34.1563 30.6328 34.0593 30.687Z" fill="#C3D3EA"/>
</svg>
