<svg width="35" height="44" viewBox="0 0 35 44" fill="none" xmlns="http://www.w3.org/2000/svg">
<path d="M24.2216 2.28252C22.2653 2.28252 20.5052 2.28252 18.7429 2.28252C14.3043 2.28252 9.86808 2.27801 5.42956 2.28478C3.23625 2.28929 2.27273 3.25733 2.27047 5.45064C2.26822 16.5052 2.26822 27.562 2.27047 38.6166C2.27047 40.9114 3.10989 41.7531 5.35735 41.7531C13.1039 41.7531 20.8504 41.7554 28.597 41.7531C30.8783 41.7531 31.8125 40.8234 31.8125 38.5444C31.8147 30.5338 31.8125 22.5255 31.8147 14.515C31.8147 14.1765 31.6996 13.7342 31.8689 13.5244C32.1758 13.1408 32.6451 12.6827 33.0693 12.6579C33.3853 12.6398 33.8839 13.2062 34.0329 13.6101C34.2044 14.075 34.0802 14.6481 34.0802 15.1761C34.0802 22.961 34.0825 30.7437 34.0802 38.5286C34.078 42.0758 32.1374 43.9983 28.5541 43.9983C20.6564 44.0006 12.7587 44.0006 4.86318 43.9983C2.13057 43.9983 0.117778 42.0464 0.0139794 39.298C-0.010842 38.6594 0.00495345 38.0186 0.00495345 37.38C0.00495345 26.7745 0.00269696 16.1712 0.00495345 5.56572C0.00495345 1.92374 1.92072 0.0102366 5.56721 0.00798008C12.1471 0.00572358 18.7293 -0.0123284 25.3093 0.0147496C29.6643 0.0328015 33.2341 2.97752 33.9742 7.10239C34.0599 7.58077 34.0735 8.07269 34.0983 8.56009C34.1389 9.33406 33.6944 9.85306 32.9949 9.87111C31.4244 9.91173 29.8155 9.9907 28.2811 9.72444C25.7741 9.28668 24.3367 7.43635 24.2239 4.89103C24.1923 4.07869 24.2216 3.25507 24.2216 2.28252ZM31.5936 7.56272C31.3228 4.98806 28.7797 2.50817 26.5819 2.59843C26.0968 6.80905 27.313 8.02981 31.5936 7.56272Z" fill="#C3D3EA"/>
<path d="M16.0144 15.5947C13.3878 15.5947 10.7613 15.5857 8.13471 15.6014C7.30883 15.606 6.71086 15.3803 6.72891 14.4281C6.74697 13.53 7.34945 13.3359 8.10989 13.3359C13.4758 13.3405 18.8418 13.3405 24.2077 13.3359C24.9794 13.3359 25.5593 13.5706 25.5616 14.4597C25.5639 15.3329 25.0246 15.6014 24.2325 15.5992C21.4931 15.5879 18.7538 15.5947 16.0144 15.5947Z" fill="#C3D3EA"/>
<path d="M13.266 21.2619C11.5398 21.2619 9.81355 21.2506 8.08733 21.2664C7.30884 21.2732 6.73795 21.061 6.72667 20.1675C6.71764 19.2852 7.28628 19.0031 8.05349 19.0031C11.542 18.9964 15.0328 18.9964 18.5214 19.0031C19.2773 19.0054 19.873 19.2649 19.8888 20.1404C19.9046 21.0272 19.3359 21.2709 18.5552 21.2664C16.7929 21.2528 15.0283 21.2619 13.266 21.2619Z" fill="#C3D3EA"/>
<path d="M12.5736 7.64781C14.0019 7.64781 15.4326 7.66135 16.8609 7.64329C17.6078 7.63201 18.1584 7.89151 18.19 8.68128C18.2238 9.51618 17.6642 9.90656 16.8902 9.91107C13.9952 9.93138 11.1001 9.92912 8.20501 9.91107C7.44005 9.90656 6.85111 9.54777 6.87367 8.71062C6.89624 7.84638 7.51226 7.62976 8.2885 7.64104C9.7146 7.6636 11.1452 7.64781 12.5736 7.64781Z" fill="#C3D3EA"/>
</svg>
