<svg width="51" height="70" viewBox="0 0 51 70" fill="none" xmlns="http://www.w3.org/2000/svg">
<g filter="url(#filter0_d_2204_86951)">
<path d="M34.5607 33.0721C37.3049 30.413 39 26.7672 39 22.7463C39 14.6031 32.0591 8 23.4983 8C14.9409 8 8 14.6031 8 22.7463C8 26.9823 9.87962 30.7973 12.8836 33.484C12.8836 33.484 17.4972 37.8492 19.7767 41.1138C22.0561 44.3785 23.5017 51 23.5017 51C23.5017 51 23.987 45.9032 26.9807 41.4212C29.9813 36.9239 34.5607 33.0721 34.5607 33.0721Z" fill="#1F3A60"/>
<path d="M34.5607 33.0721C37.3049 30.413 39 26.7672 39 22.7463C39 14.6031 32.0591 8 23.4983 8C14.9409 8 8 14.6031 8 22.7463C8 26.9823 9.87962 30.7973 12.8836 33.484C12.8836 33.484 17.4972 37.8492 19.7767 41.1138C22.0561 44.3785 23.5017 51 23.5017 51C23.5017 51 23.987 45.9032 26.9807 41.4212C29.9813 36.9239 34.5607 33.0721 34.5607 33.0721Z" fill="url(#paint0_linear_2204_86951)" fill-opacity="0.2"/>
<path d="M23.5 36.5C31.232 36.5 37.5 30.4558 37.5 23C37.5 15.5442 31.232 9.5 23.5 9.5C15.768 9.5 9.5 15.5442 9.5 23C9.5 30.4558 15.768 36.5 23.5 36.5Z" fill="#1F3A60"/>
<path d="M23.5 36.5C31.232 36.5 37.5 30.4558 37.5 23C37.5 15.5442 31.232 9.5 23.5 9.5C15.768 9.5 9.5 15.5442 9.5 23C9.5 30.4558 15.768 36.5 23.5 36.5Z" fill="url(#paint1_linear_2204_86951)" fill-opacity="0.2"/>
<path d="M37.25 23C37.25 30.3093 31.1026 36.25 23.5 36.25C15.8974 36.25 9.75 30.3093 9.75 23C9.75 15.6907 15.8974 9.75 23.5 9.75C31.1026 9.75 37.25 15.6907 37.25 23Z" stroke="white" stroke-opacity="0.2" stroke-width="0.5"/>
<path d="M32.5033 25.0229C32.4897 25.0813 32.4452 25.0916 32.3666 25.0916H29.783C29.7249 25.0916 29.6907 25.0778 29.6805 25.0367C29.6805 25.0332 29.9607 23.8185 30.528 21.3649H28.5459C28.4809 21.3649 28.4399 21.3444 28.4297 21.3032L28.5732 20.6615C28.5869 20.6031 28.6382 20.5723 28.7236 20.5723H35.5962C35.6577 20.5723 35.7192 20.6066 35.7089 20.6478L35.562 21.286C35.5483 21.3375 35.5039 21.3684 35.4184 21.3684H33.3543L32.5033 25.0229Z" fill="white"/>
<path d="M16.6658 22.6513C16.4095 22.8812 16.0711 22.9635 15.6371 22.9635H14.4137L14.7827 21.3644H15.5346C15.9276 21.3644 16.6555 21.4159 16.8879 21.9101C17.028 22.2086 16.8742 22.466 16.6658 22.6513ZM18.8496 22.967C19.5399 22.4213 19.6117 21.4434 18.5693 20.9012C18.0909 20.6541 17.3117 20.5752 16.3685 20.5752H12.7323C12.6605 20.5752 12.5785 20.6164 12.5648 20.6747L11.5703 24.995C11.5771 25.0362 11.5942 25.0979 11.6489 25.0979L13.7848 25.0945C13.8634 25.0945 13.9215 25.0945 13.942 25.0087L14.2189 23.8042H14.8614L16.5359 25.0945H19.3143L17.4381 23.5503C17.9097 23.4371 18.4497 23.2792 18.8496 22.967Z" fill="white"/>
<path d="M25.0935 22.6513C24.8372 22.8812 24.4989 22.9635 24.0649 22.9635H22.8414L23.2105 21.3644H23.9623C24.3553 21.3644 25.0833 21.4159 25.3157 21.9101C25.4558 22.2086 25.302 22.466 25.0935 22.6513ZM27.2773 22.967C27.971 22.4213 28.0428 21.4434 26.9971 20.9012C26.5186 20.6541 25.7394 20.5752 24.7962 20.5752H21.16C21.0882 20.5752 21.0062 20.6164 20.9925 20.6747L19.998 24.995C20.0049 25.0362 20.022 25.0979 20.0766 25.0979L22.2126 25.0945C22.2912 25.0945 22.3493 25.0945 22.3698 25.0087L22.6466 23.8042H23.2891L24.9637 25.0945H27.7421L25.8659 23.5503C26.3375 23.4371 26.8774 23.2792 27.2773 22.967Z" fill="white"/>
<circle cx="23.5" cy="55.5" r="2.5" fill="#1F3A60"/>
<circle cx="23.5" cy="55.5" r="2.5" fill="url(#paint2_linear_2204_86951)" fill-opacity="0.1"/>
</g>
<defs>
<filter id="filter0_d_2204_86951" x="0" y="0" width="51" height="70" filterUnits="userSpaceOnUse" color-interpolation-filters="sRGB">
<feFlood flood-opacity="0" result="BackgroundImageFix"/>
<feColorMatrix in="SourceAlpha" type="matrix" values="0 0 0 0 0 0 0 0 0 0 0 0 0 0 0 0 0 0 127 0" result="hardAlpha"/>
<feOffset dx="2" dy="2"/>
<feGaussianBlur stdDeviation="5"/>
<feComposite in2="hardAlpha" operator="out"/>
<feColorMatrix type="matrix" values="0 0 0 0 0.121569 0 0 0 0 0.227451 0 0 0 0 0.376471 0 0 0 0.08 0"/>
<feBlend mode="normal" in2="BackgroundImageFix" result="effect1_dropShadow_2204_86951"/>
<feBlend mode="normal" in="SourceGraphic" in2="effect1_dropShadow_2204_86951" result="shape"/>
</filter>
<linearGradient id="paint0_linear_2204_86951" x1="23.5" y1="8" x2="23.5" y2="51" gradientUnits="userSpaceOnUse">
<stop stop-color="white" stop-opacity="0"/>
<stop offset="0.65625" stop-color="white" stop-opacity="0.2"/>
<stop offset="1" stop-color="white" stop-opacity="0"/>
</linearGradient>
<linearGradient id="paint1_linear_2204_86951" x1="23.5" y1="9.5" x2="23.5" y2="36.5" gradientUnits="userSpaceOnUse">
<stop stop-color="white" stop-opacity="0.5"/>
<stop offset="1" stop-color="white" stop-opacity="0"/>
</linearGradient>
<linearGradient id="paint2_linear_2204_86951" x1="23.5" y1="53" x2="23.5" y2="58" gradientUnits="userSpaceOnUse">
<stop stop-color="white"/>
<stop offset="1" stop-color="white" stop-opacity="0"/>
</linearGradient>
</defs>
</svg>
