<svg width="120" height="128" viewBox="0 0 120 128" fill="none" xmlns="http://www.w3.org/2000/svg">
<path d="M53.9938 141.026C53.1837 140.983 52.372 140.899 51.5619 140.904C47.7009 140.924 43.8846 140.502 40.0711 139.918C32.6126 138.775 25.2937 137.081 18.133 134.704C12.3481 132.784 6.81065 130.304 1.47182 127.371C1.24589 127.246 1.03291 126.946 0.97247 126.692C0.372391 124.121 0.0629978 121.511 0.0298999 118.875C-0.00751505 115.854 -0.0118322 112.831 0.0284609 109.81C0.0889005 105.293 1.15523 101.071 3.85774 97.3597C5.33419 95.3321 7.38626 94.083 9.68872 93.2656C12.7366 92.1834 15.8823 91.3603 18.8827 90.1645C22.394 88.7643 25.8462 87.1842 29.2265 85.4919C32.1032 84.0514 34.8417 82.3404 37.6435 80.7503C37.8291 80.6452 38.0176 80.5459 38.3169 80.3848C42.5564 93.7649 46.7814 107.101 51.0049 120.435C51.0899 120.439 51.1748 120.442 51.2597 120.446C51.5734 119.65 51.9101 118.863 52.1979 118.059C53.506 114.409 54.7939 110.753 56.1107 107.108C56.2833 106.631 56.1984 106.277 55.9394 105.869C54.4327 103.491 52.844 101.146 52.0583 98.4044C51.759 97.3611 51.5662 96.2617 51.5129 95.1795C51.4007 92.8943 52.8138 91.5387 54.6457 90.53C55.9955 89.786 57.5022 89.5946 59.0046 89.5644C60.7717 89.5284 62.5302 89.6781 64.2052 90.3515C67.2301 91.5675 68.1137 93.9074 67.564 96.7581C66.902 100.189 65.1349 103.143 63.208 106.004C63.0655 106.215 62.9864 106.587 63.067 106.817C64.6039 111.218 66.1681 115.608 67.728 120.001C67.7669 120.109 67.8273 120.209 67.9712 120.501C68.2432 119.819 68.4878 119.296 68.6648 118.751C70.396 113.412 72.1329 108.075 73.8338 102.727C76.1248 95.522 78.3855 88.3067 80.6606 81.0971C80.724 80.8971 80.7902 80.6985 80.8895 80.3948C81.9097 81.005 82.8868 81.5806 83.8539 82.1706C91.4074 86.7755 99.4588 90.235 107.955 92.6799C110.685 93.4656 113.169 94.673 115.013 96.9265C116.753 99.052 117.752 101.533 118.476 104.155C119.29 107.108 119.231 110.125 119.187 113.137C119.139 116.346 119.028 119.555 118.883 122.762C118.837 123.782 118.694 124.822 118.405 125.796C118.222 126.411 117.815 127.146 117.291 127.441C114.905 128.784 112.489 130.096 109.995 131.225C102.345 134.683 94.3214 136.998 86.116 138.674C82.5443 139.404 78.9324 140 75.3117 140.42C72.2523 140.774 69.1527 140.787 66.0702 140.952C65.8817 140.963 65.6946 141.003 65.5061 141.03C61.6711 141.026 57.8332 141.026 53.9938 141.026Z" fill="#5D7592"/>
<path d="M62.3425 0C64.0579 0.287808 65.8077 0.438907 67.4799 0.886447C72.4143 2.20605 76.707 4.67687 80.0225 8.60257C80.991 9.74804 82.0343 10.541 83.4115 11.082C85.406 11.8634 86.7529 13.4392 87.8264 15.2351C89.2813 17.6699 90.0368 20.3379 90.2627 23.1527C90.7074 28.6959 90.3347 34.1872 89.1547 39.621C89.0597 40.0599 89.159 40.3593 89.5288 40.5909C90.5131 41.2069 90.8355 42.0976 90.883 43.2532C91.1031 48.5992 89.8555 53.5682 87.2336 58.2076C86.9659 58.6825 86.6378 59.1344 86.2809 59.546C85.7844 60.1187 85.1268 60.4741 84.367 60.2597C83.6187 60.0496 83.4949 60.4885 83.3712 61.0066C83.0273 62.437 82.7913 63.9034 82.3279 65.2935C80.283 71.4223 77.1114 76.7914 71.4718 80.2954C68.3548 82.2324 64.8911 83.3117 61.2229 83.6024C54.6883 84.1204 48.8458 82.2612 43.7372 78.2045C40.6476 75.751 38.4861 72.5434 36.8715 68.9645C35.5448 66.0231 34.6425 62.945 33.9935 59.7892C33.8783 59.2265 33.6423 58.8653 33.0581 58.5818C32.5185 58.3213 32.0436 57.7731 31.7241 57.2392C29.7987 54.0186 28.4834 50.5433 27.9682 46.8321C27.7078 44.9527 27.7682 43.0172 27.8142 41.1104C27.843 39.9002 28.9914 38.9317 30.2074 38.8526C31.0909 38.795 31.1542 38.7144 30.9039 37.8697C29.8606 34.3614 29.5353 30.7781 29.9771 27.1546C30.5772 22.2245 32.3976 17.7477 35.3951 13.7874C38.8071 9.2818 43.0105 5.66549 48.0284 3.05076C51.1842 1.40882 54.5242 0.316588 58.1132 0.128074C58.3737 0.115123 58.6312 0.0446102 58.8888 0C60.0401 0 61.1913 0 62.3425 0Z" fill="#5D7592"/>
</svg>
