<svg width="108" height="122" viewBox="0 0 108 122" fill="none" xmlns="http://www.w3.org/2000/svg">
<path d="M104.989 108.939C102.636 107.396 100.283 105.846 97.8631 104.411C94.5984 102.478 91.0568 101.552 87.7437 99.897C84.0585 98.3836 80.3532 96.8984 76.759 95.1851C74.9377 94.3154 73.3145 93.0098 71.6589 91.8212C71.0363 91.3732 70.539 90.7295 70.0478 90.1261C68.9178 88.7418 68.2527 87.2021 68.2628 85.3517C68.2831 81.8223 68.1881 78.2929 68.1557 74.7635C68.1537 74.5395 68.2244 74.2288 68.3801 74.1036C69.8578 72.9191 70.7917 71.331 71.667 69.7085C73.3691 66.5565 74.5455 63.2168 75.0893 59.6693C75.1419 59.3262 75.1601 59.0659 75.6068 58.9811C76.7307 58.7672 77.6182 58.1114 78.2347 57.1892C80.2198 54.2168 80.9576 50.9295 80.4159 47.4001C80.2238 46.151 79.5466 45.1098 78.6046 44.238C78.4227 44.0705 78.2913 43.6609 78.3621 43.4328C79.7286 39.0378 80.6766 34.5599 81.1092 29.9772C81.5135 25.683 81.4691 21.413 80.3128 17.2177C78.5117 10.6896 74.3212 6.76472 67.5897 5.61449C67.3431 5.57211 67.0277 5.45305 66.9004 5.26337C65.2408 2.79744 62.7463 1.66335 60.0092 0.926797C57.0761 0.13778 54.0762 0.0207389 51.0622 0.168049C47.1062 0.359754 43.2271 0.991372 39.5318 2.47255C32.2626 5.38444 28.0196 10.8208 26.3519 18.3659C25.3796 22.7711 25.3856 27.2207 25.8182 31.6864C26.2023 35.6577 26.9725 39.5604 27.9387 43.4268C27.9953 43.6548 27.8902 44.0402 27.7184 44.1936C26.1174 45.6163 25.5494 47.4566 25.6363 49.5008C25.7212 51.4986 26.1154 53.456 26.93 55.2984C27.7083 57.056 28.7473 58.5614 30.7971 59.0437C30.9669 59.084 31.1367 59.4412 31.1731 59.6733C31.9089 64.2298 33.611 68.3949 36.255 72.1704C36.7119 72.8243 37.3547 73.3469 37.8702 73.9644C38.0723 74.2066 38.2765 74.5395 38.2826 74.8362C38.321 76.6523 38.3008 78.4685 38.3008 80.2846C38.3311 80.2866 38.3594 80.2866 38.3897 80.2886C38.2745 82.4035 38.226 84.5243 38.0097 86.627C37.9248 87.4403 37.5569 88.2717 37.1425 88.9961C35.9458 91.0826 34.1224 92.5638 32.1171 93.8311C28.9838 95.8107 25.5575 97.1688 22.1311 98.5289C15.0256 101.348 7.89797 103.816 1.44143 108.005C0.806687 108.417 0.119391 108.929 0.0183176 109.68C-0.0423263 110.132 0.127476 110.584 0.331644 110.994C1.60112 113.546 4.18455 114.725 6.36166 116.37C10.0973 119.189 14.0877 121.749 18.2802 123.842C26.738 128.14 35.7153 130.733 45.1636 131.668C46.5705 131.807 47.9836 131.877 49.3925 131.988C49.6391 132.009 49.8817 132.075 50.1283 132.12H56.1927C57.2418 132.023 58.291 131.92 59.3421 131.831C77.038 130.33 94.3053 122.712 107.006 110.259C106.329 109.819 105.658 109.379 104.989 108.939Z" fill="#5D7592"/>
</svg>
