<svg width="99" height="115" viewBox="0 0 99 115" fill="none" xmlns="http://www.w3.org/2000/svg">
<path d="M66.7963 0.673245C66.9928 0.583931 67.2023 0.522098 67.3822 0.399806C67.9089 0.0425482 68.4438 0.038426 68.9954 0.294003C69.818 0.675993 70.6536 1.01127 71.5164 1.25035C71.7567 1.40837 72.0123 1.51005 72.2905 1.52654C72.7947 1.84945 73.3427 2.02258 73.9001 2.16273C74.6209 2.51862 75.3607 2.80305 76.1205 3.02428C76.936 3.41176 77.7692 3.73604 78.6285 3.96826C78.8723 4.14551 79.1386 4.23895 79.4251 4.25819C79.9245 4.55361 80.4536 4.75148 81.0016 4.88064C81.7757 5.21591 82.5462 5.56905 83.3593 5.76417C84.131 6.13654 84.9204 6.44845 85.7335 6.67792C86.0117 6.7796 86.2898 6.88266 86.5668 6.98434C87.8474 7.54221 89.1387 8.06161 90.4596 8.47795C91.2265 8.83383 92.0089 9.13338 92.8078 9.37522C93.2291 9.61293 93.6789 9.75034 94.1334 9.86301C95.2507 10.3907 96.4023 10.8029 97.5575 11.2014C97.8143 11.3099 98.0652 11.4624 98.3303 11.5188C98.8132 11.6218 99.0476 11.909 98.992 12.4861C98.9446 13.3999 98.9446 14.315 98.992 15.2287C98.9446 16.1466 98.9434 17.0631 98.992 17.981C98.9446 18.8948 98.9446 19.8099 98.992 20.7236C98.9446 21.6415 98.9434 22.558 98.992 23.4759C98.9446 24.3897 98.9446 25.3048 98.992 26.2185C98.9446 27.1364 98.9434 28.0529 98.992 28.9708C98.9446 29.8846 98.9446 30.7997 98.992 31.7134C98.9446 32.4472 98.9446 33.1809 98.992 33.9133C98.992 34.0507 98.992 34.1895 98.992 34.3269C98.992 34.3723 98.992 34.419 98.992 34.4643C98.9446 35.3781 98.9446 36.2932 98.992 37.207C98.9446 38.1248 98.9434 39.0413 98.992 39.9592C98.9446 40.873 98.9446 41.7881 98.992 42.7019C98.9446 43.6197 98.9434 44.5362 98.992 45.4541C98.9446 46.3679 98.9446 47.283 98.992 48.1968C98.9446 49.1146 98.9434 50.0311 98.992 50.949C98.9446 51.8628 98.9446 52.7779 98.992 53.6917C98.9446 54.4254 98.9446 55.1592 98.992 55.8915C98.992 56.0289 98.992 56.1677 98.992 56.3051C98.992 56.3505 98.992 56.3972 98.992 56.4425C98.9446 57.3563 98.9446 58.2714 98.992 59.1852C98.9446 60.1031 98.9434 61.0196 98.992 61.9374C98.9446 62.8512 98.9446 63.7663 98.992 64.6801C98.9446 65.5979 98.9434 66.5145 98.992 67.4323C98.9446 68.3461 98.9446 69.2612 98.992 70.175C98.9446 71.0928 98.9434 72.0094 98.992 72.9272C98.9446 73.841 98.9446 74.7561 98.992 75.6699C98.9446 76.4036 98.9446 77.1374 98.992 77.8698C98.992 78.0072 98.992 78.1459 98.992 78.2833C98.992 78.3287 98.992 78.3754 98.992 78.4208C98.9446 79.3345 98.9446 80.2496 98.992 81.1634C98.9446 82.0813 98.9434 82.9978 98.992 83.9156C98.9446 84.8294 98.9446 85.7445 98.992 86.6583C98.9446 87.5762 98.9434 88.4927 98.992 89.4105C98.9446 90.3243 98.9446 91.2394 98.992 92.1532C98.9446 93.0711 98.9434 93.9876 98.992 94.9054C98.9446 95.8192 98.9446 96.7343 98.992 97.6481C98.9446 98.566 98.9434 99.4825 98.992 100.4C98.9446 101.314 98.9446 102.229 98.992 103.143C98.9446 104.061 98.9434 104.977 98.992 105.895C98.9446 106.809 98.9446 107.724 98.992 108.638C98.9446 109.556 98.9434 110.472 98.992 111.39C98.9446 112.304 98.9446 113.219 98.992 114.133C98.9269 115.074 98.9269 115.071 98.083 115.08C97.9078 115.081 97.7338 115.101 97.5598 115.114C96.7727 115.056 95.9845 115.052 95.1974 115.115C94.4068 115.058 93.6162 115.056 92.8255 115.115C92.0384 115.053 91.2502 115.053 90.4631 115.115C89.6725 115.058 88.8818 115.056 88.0912 115.115C87.3041 115.053 86.5159 115.053 85.7288 115.115C84.9382 115.058 84.1475 115.056 83.3569 115.115C82.5698 115.053 81.7816 115.053 80.9945 115.115C80.205 115.112 79.4156 115.11 78.6262 115.107C78.548 115.106 78.4687 115.104 78.3906 115.101C78.1575 114.816 78.335 114.452 78.2521 114.137C78.251 113.219 78.251 112.301 78.2498 111.383C78.2498 110.47 78.2498 109.554 78.251 108.641C78.251 107.723 78.251 106.805 78.2498 105.887C78.2498 104.973 78.2498 104.058 78.251 103.144C78.251 102.226 78.251 101.309 78.2498 100.391C78.2498 99.477 78.2498 98.5618 78.251 97.6481C78.251 96.7302 78.251 95.8123 78.2498 94.8945C78.2498 93.9807 78.2498 93.0669 78.251 92.1518C78.251 91.2339 78.251 90.3161 78.2498 89.3982C78.2498 88.4844 78.2498 87.5693 78.251 86.6555C78.251 85.7377 78.251 84.8198 78.2498 83.9033C78.2498 82.9895 78.2498 82.0744 78.251 81.1606C78.251 80.2428 78.251 79.3249 78.2498 78.407C78.2498 77.4933 78.2498 76.5795 78.251 75.6644C78.251 74.7465 78.251 73.8286 78.2498 72.9107C78.2498 71.997 78.2498 71.0832 78.251 70.1681C78.251 69.2502 78.251 68.3323 78.2498 67.4145C78.2498 66.5007 78.2498 65.5856 78.251 64.6718C78.251 63.754 78.251 62.8361 78.2498 61.9182C78.2498 61.0044 78.2498 60.0907 78.251 59.1756C78.251 58.2577 78.251 57.3398 78.2498 56.4219C78.2498 55.5082 78.2498 54.593 78.251 53.6793C78.251 52.7614 78.251 51.8435 78.2498 50.9257C78.2498 50.0119 78.2498 49.0981 78.251 48.183C78.251 47.2651 78.251 46.3473 78.2498 45.4294C78.2498 44.5156 78.2498 43.6005 78.251 42.6867C78.251 41.7689 78.251 40.851 78.2498 39.9331C78.251 39.0194 78.251 38.1056 78.2521 37.1918C78.2817 36.9789 78.148 36.9253 78.0178 36.8758C77.4331 36.6532 76.8484 36.4347 76.2637 36.2135C75.5003 35.8082 74.7026 35.5155 73.8954 35.2544C72.339 34.5413 70.766 33.8817 69.1575 33.3431C68.3799 32.9886 67.6118 32.5983 66.7951 32.3702C65.2411 31.6489 63.6598 31.0209 62.0596 30.4562C61.2915 30.0659 60.502 29.7471 59.6925 29.4943C58.142 28.7633 56.5572 28.1436 54.9594 27.5679C54.1865 27.1955 53.4065 26.8451 52.5922 26.6088C51.4145 26.1127 50.2369 25.6153 49.058 25.1234C48.8687 25.0437 48.6734 25.0465 48.484 25.1495C47.4377 25.7198 46.3914 26.29 45.3463 26.8589C44.5711 27.1886 43.8254 27.5967 43.0999 28.0557C42.6004 28.2219 42.1317 28.4638 41.7009 28.8045C41.3553 28.9103 41.0358 29.0807 40.7363 29.3074C40.5363 29.3981 40.3315 29.4778 40.1362 29.5809C39.161 30.0934 39.1621 30.0962 39.0036 28.9378C39.0379 28.0213 39.1255 27.1048 39.0012 26.1883C39.0012 25.2773 39 24.3649 39 23.4539C39.0438 22.5333 39.1243 21.614 39.0012 20.6934C39.0012 19.7824 39 18.87 39 17.959C39.0485 17.0439 39.1136 16.1301 39.0083 15.215C39.0888 14.9265 39.3006 14.8206 39.5137 14.7066C39.9327 14.4813 40.3457 14.2422 40.7623 14.0086C42.3377 13.2061 43.9118 12.4023 45.4872 11.5998C47.1264 10.7768 48.7811 9.99217 50.3789 9.06193C51.1435 8.75689 51.8785 8.37077 52.5922 7.9297C53.2526 7.68786 53.8811 7.36358 54.4824 6.9651C54.6646 6.93487 54.8292 6.85792 54.9653 6.7109C55.7784 6.37013 56.5702 5.9744 57.3324 5.49897C58.9433 4.79545 60.4961 3.94078 62.0537 3.09573C63.6539 2.34823 65.2482 1.57051 66.7963 0.673245ZM85.5915 54.5051L85.5939 54.5037C85.4447 54.6191 85.4862 54.7744 85.5276 54.9297C85.5276 55.2498 85.5276 55.5714 85.5276 55.8915C85.4708 56.077 85.4767 56.2639 85.5193 56.4508C85.4684 57.3632 85.4684 58.2769 85.5205 59.1893C85.466 60.1085 85.4672 61.0264 85.5193 61.9457C85.5087 62.7179 85.4944 63.4901 85.4909 64.2624C85.4897 64.4286 85.4542 64.6663 85.7241 64.5921C86.5171 64.6883 87.3101 64.6924 88.1031 64.588C88.5706 64.7076 89.044 64.6059 89.5139 64.6443C89.8039 64.6677 89.8891 64.5248 89.8808 64.2046C89.8595 63.4517 89.8618 62.6973 89.8547 61.9443C89.8547 61.0264 89.8547 60.1085 89.8559 59.192C89.8559 58.2783 89.8559 57.3632 89.8547 56.4494C89.8547 55.8984 89.8559 55.3488 89.8559 54.7978C89.8713 54.6027 89.9317 54.3718 89.6346 54.4281C89.1209 54.3691 88.6073 54.3746 88.0936 54.4281C87.3053 54.4281 86.5182 54.4268 85.73 54.4268C85.6613 54.402 85.6128 54.4213 85.5915 54.5051ZM89.6358 91.3659C89.1245 91.3686 88.612 91.3713 88.1007 91.3741C87.806 91.3645 87.5124 91.3452 87.2189 91.3494C86.6721 91.3576 85.9584 91.1405 85.6199 91.4565C85.221 91.8289 85.5015 92.6932 85.4956 93.3404C85.4731 95.8948 85.4838 98.4492 85.4743 101.004C85.4731 101.381 85.4755 101.671 85.9265 101.64C86.6496 101.59 87.3763 101.599 88.1019 101.582C88.6534 101.656 89.2061 101.652 89.7577 101.586C89.8275 101.625 89.8405 101.579 89.8394 101.512C89.8441 101.146 89.8488 100.78 89.8524 100.414C89.8524 99.4962 89.8524 98.5783 89.8536 97.6618C89.8536 96.7481 89.8536 95.8329 89.8524 94.9192C89.8524 94.0013 89.8536 93.0834 89.8536 92.1656C89.8536 91.9828 89.8536 91.8 89.8536 91.6159C89.8926 91.4002 89.8145 91.3233 89.6358 91.3659ZM88.0948 82.9483C88.1918 82.9593 88.2889 82.9785 88.3871 82.9813C89.9471 83.0184 89.9471 83.0184 89.8559 81.1716C89.8547 80.2579 89.8547 79.3441 89.8536 78.429C89.8536 77.5111 89.8536 76.5932 89.8547 75.6767C89.8536 74.763 89.8524 73.8492 89.8512 72.9355C89.766 72.5768 89.5612 72.7994 89.3991 72.8104C88.9647 72.8077 88.5303 72.8036 88.096 72.8008C87.3077 72.662 86.5194 72.662 85.73 72.7994C85.5063 72.7953 85.4873 72.9685 85.4873 73.1663C85.4992 75.8348 85.5087 78.5018 85.5193 81.1703C85.5087 81.6457 85.4968 82.1211 85.4873 82.5965C85.4838 82.7917 85.4992 82.9717 85.73 82.9469C86.5194 83.0088 87.3077 83.006 88.0948 82.9483ZM89.8547 20.7223C89.8547 19.9445 89.8536 19.1668 89.8536 18.3891C89.9589 17.8532 89.7956 17.6663 89.3079 17.6828C88.206 17.7186 87.1017 17.6952 85.9987 17.6815C85.6815 17.6773 85.4779 17.7282 85.4802 18.1912C85.4944 21.2788 85.4944 24.3663 85.4885 27.4525C85.4885 27.7754 85.6022 27.9348 85.8625 27.9293C86.607 27.9141 87.355 28.0241 88.096 27.8674C88.2332 27.8784 88.3694 27.8963 88.5067 27.8977C89.9364 27.9169 89.9364 27.9155 89.8536 26.2172C89.8536 25.3034 89.8536 24.3883 89.8524 23.4745C89.8536 22.558 89.8547 21.6401 89.8547 20.7223ZM89.8547 42.7046C89.8547 41.7909 89.8547 40.8757 89.8536 39.962C89.8536 39.0441 89.8547 38.1262 89.8547 37.2097C89.9139 36.017 89.9139 36.0129 88.9185 36.0198C88.6463 36.0211 88.3741 36.0527 88.1019 36.0692C87.3373 35.9428 86.5691 36.0459 85.8034 36.0101C85.5323 35.9978 85.4708 36.1723 85.4767 36.4416C85.4862 36.8992 85.4862 37.3567 85.4862 37.8143C85.4838 40.4209 85.4802 43.0289 85.4779 45.6355C85.4779 45.946 85.4057 46.3033 85.859 46.2827C86.6058 46.2511 87.3538 46.2497 88.1007 46.236C88.4676 46.2497 88.8392 46.2318 89.2026 46.2827C89.7754 46.3624 89.9932 46.1137 89.8524 45.4582C89.8536 44.539 89.8547 43.6225 89.8547 42.7046Z" fill="#5D7592"/>
<path d="M45.979 115.033C44.6986 115.174 43.4147 115.09 42.1332 115.092C30.8141 115.104 19.495 115.099 8.17594 115.099C5.64787 115.099 3.11981 115.086 0.591749 115.108C0.126053 115.114 0 114.935 0 114.399C0.0116716 103.349 0.00933726 92.2996 0.00933726 81.2487C0.00933726 73.0591 0.00933726 64.8681 0.0105044 56.6785C0.0326804 56.6346 0.0560235 56.5906 0.0781995 56.5467C0.155232 56.5069 0.232264 56.4671 0.309297 56.4273C0.344311 56.4108 0.380493 56.3943 0.415508 56.3792C0.493708 56.3366 0.57074 56.2941 0.648939 56.2515C0.704963 56.2213 0.760987 56.1925 0.81701 56.1623C1.56282 55.8369 2.28413 55.447 2.98442 55.0021C3.72907 54.6809 4.45037 54.3006 5.13433 53.8242C5.20552 53.7912 5.27672 53.7583 5.34791 53.7253C6.1801 53.3574 6.98193 52.907 7.77093 52.4265C9.30925 51.6563 10.8312 50.8449 12.3275 49.9662C13.9102 49.1877 15.4777 48.3681 17.0043 47.4468C18.5846 46.6972 20.1195 45.8281 21.6554 44.9645C23.2346 44.171 24.8091 43.3664 26.3381 42.4438C27.1376 42.0731 27.9347 41.6997 28.6642 41.1532C29.3353 40.9665 29.9271 40.5656 30.5258 40.1853C30.7032 40.1524 30.8655 40.0824 30.9974 39.9327C31.8062 39.5936 32.5754 39.1529 33.3328 38.6833C34.2024 38.292 35.0474 37.8348 35.8667 37.3145C35.9228 37.287 35.98 37.2596 36.036 37.2321L36.0862 37.2362L36.1118 37.1813L36.127 37.1731C36.2928 37.1992 36.3301 37.0536 36.3721 36.9163C37.0047 36.9081 37.4856 36.4427 38.026 36.1571C38.6072 35.8592 39.1966 35.5805 39.7662 35.2537C40.0101 35.1137 40.3556 35.1246 40.4572 34.721C41.2824 34.6125 41.9523 34.0537 42.6783 33.6583C43.4789 33.3 44.2621 32.8991 45.0079 32.4007C45.1351 32.3554 45.2729 32.3321 45.3872 32.2593C45.8273 31.9765 45.986 32.1028 45.9615 32.7028C45.9358 33.3275 45.9813 33.9576 45.9965 34.5851C45.9323 35.4953 45.9288 36.407 45.9977 37.3172C45.9288 38.2357 45.9276 39.1556 45.9988 40.0741C45.93 40.9871 45.9311 41.8988 45.9988 42.8118C45.9288 43.7303 45.9288 44.6474 45.9988 45.5659C45.93 46.4789 45.9311 47.3905 45.9988 48.3036C45.9288 49.222 45.9288 50.1392 45.9988 51.0577C45.93 51.9707 45.9311 52.8823 45.9988 53.7953C45.9288 54.7138 45.9288 55.631 45.9988 56.5495C45.93 57.4625 45.9311 58.3741 45.9988 59.2871C45.9288 60.2056 45.9288 61.1227 45.9988 62.0412C45.93 62.9543 45.9311 63.8659 45.9988 64.7789C45.9288 65.6974 45.9288 66.6145 45.9988 67.533C45.93 68.446 45.9311 69.3577 45.9988 70.2707C45.9288 71.1892 45.9288 72.1063 45.9988 73.0248C45.9288 73.9364 45.9311 74.8467 45.9977 75.7583C45.9288 76.6782 45.9276 77.5995 45.9977 78.5193C45.9288 79.4296 45.93 80.3385 45.9977 81.2487C45.9288 82.1672 45.9276 83.0871 45.9988 84.0056C45.93 84.9186 45.9311 85.8303 45.9988 86.7433C45.9288 87.6632 45.9288 88.5816 45.9988 89.5015C45.93 90.4118 45.9311 91.3207 45.9988 92.2309C45.93 93.1508 45.9288 94.0693 46 94.9878C45.9311 95.9008 45.9323 96.8125 46 97.7255C45.93 98.644 45.93 99.5611 46 100.48C45.93 101.391 45.9323 102.301 45.9988 103.213C45.93 104.133 45.9288 105.054 45.9988 105.974C45.93 106.884 45.9311 107.793 45.9988 108.704C45.93 109.623 45.9288 110.545 45.9988 111.465C45.9323 112.376 45.93 113.286 46 114.198C45.9265 114.474 45.9475 114.754 45.979 115.033ZM14.649 89.1899C14.2241 89.2434 13.783 89.1391 13.3756 89.367C13.106 89.3903 12.8364 89.4123 12.5668 89.4342C11.7043 89.5139 10.8394 89.5647 9.9897 89.7775C9.39795 89.7349 8.82137 89.9038 8.23663 89.9615C8.11174 89.9258 7.99269 89.9216 7.88998 90.0329C7.81412 90.0438 7.73709 90.0535 7.66122 90.0644C7.31224 90.0123 6.97493 90.1262 6.63179 90.1523C6.31315 90.1756 6.17426 90.3349 6.19177 90.6932C6.21628 91.2081 6.1159 91.7298 6.25129 92.2378C6.25129 93.1522 6.25129 94.0666 6.25013 94.981C6.18827 95.2446 6.07505 95.5411 6.49173 95.4889C6.56876 95.4834 6.64579 95.4766 6.72283 95.4711C6.88506 95.4972 7.0473 95.5315 7.18619 95.3846C8.2518 95.3489 9.30808 95.2226 10.3562 94.9919C11.025 94.9906 11.6844 94.8945 12.3404 94.7462C13.1212 94.7187 13.8973 94.6363 14.6642 94.4537C15.4485 94.4414 16.2247 94.3357 16.9938 94.164C17.8563 94.1558 18.706 93.9993 19.5581 93.8661C20.2583 93.7728 20.9586 93.6808 21.6589 93.5874C22.483 93.5915 23.293 93.4089 24.1076 93.3018C24.8464 93.2057 25.5864 93.111 26.3252 93.0149C27.1072 92.916 27.8892 92.8186 28.6712 92.7197C28.9595 92.695 29.2501 92.6826 29.5372 92.6428C30.8036 92.4685 32.0688 92.2872 33.334 92.1087C33.9596 92.165 34.5665 91.955 35.1863 91.9426C35.4699 91.9371 35.5481 91.7737 35.5388 91.4676C35.5166 90.8072 35.5119 90.1468 35.5003 89.4864C35.5539 88.5762 35.5621 87.6673 35.4979 86.757C35.3777 86.3314 35.1524 86.654 34.9727 86.6568C34.409 86.5868 33.8907 86.9341 33.3317 86.8984C32.503 86.8325 31.6942 87.0055 30.883 87.162C30.1372 87.1881 29.3984 87.276 28.6654 87.4421C27.8787 87.4572 27.0979 87.5327 26.3276 87.7345C25.5456 87.7593 24.7706 87.8595 24.0003 88.0187C23.2101 88.0091 22.4339 88.1547 21.6578 88.3098C21.4909 88.2769 21.3263 88.2769 21.1699 88.3675C21.1349 88.3743 21.0999 88.3798 21.0649 88.3867C20.4813 88.3798 19.907 88.4787 19.334 88.5858C18.5473 88.627 17.7665 88.7354 16.9903 88.8864C16.2048 88.9372 15.4193 88.9922 14.649 89.1899ZM33.3352 109.228C33.9433 109.239 34.5525 109.238 35.1606 109.264C35.5294 109.28 35.5796 109.065 35.4991 108.717C35.5609 107.799 35.5598 106.88 35.4991 105.96C35.5108 105.509 35.5131 105.056 35.5364 104.604C35.5551 104.24 35.4116 104.13 35.1221 104.143C34.5257 104.167 33.9281 104.17 33.3317 104.181C32.5543 104.181 31.7759 104.181 30.9985 104.181C30.22 104.125 29.4415 104.123 28.6642 104.181C27.8869 104.181 27.1084 104.181 26.3311 104.181C25.5526 104.125 24.7741 104.123 23.9968 104.181C23.2194 104.181 22.4409 104.181 21.6636 104.181C20.8851 104.125 20.1066 104.123 19.3293 104.181C18.552 104.181 17.7735 104.181 16.9961 104.181C16.2176 104.125 15.4392 104.123 14.6618 104.181C13.8845 104.181 13.106 104.181 12.3287 104.181C11.5502 104.125 10.7717 104.123 9.99437 104.181C9.21704 104.181 8.43855 104.18 7.66122 104.18C5.86496 104.128 6.27697 103.88 6.23029 105.767C6.22912 105.833 6.24546 105.9 6.25363 105.967C6.24312 106.92 6.23729 107.872 6.21861 108.824C6.21278 109.139 6.30732 109.277 6.58627 109.272C7.72308 109.25 8.86106 109.242 9.99787 109.228C10.774 109.283 11.5502 109.283 12.3252 109.228C14.6607 109.29 16.9973 109.288 19.3328 109.228C20.109 109.283 20.8851 109.283 21.6601 109.228C23.9956 109.29 26.3322 109.288 28.6677 109.228C29.4439 109.228 30.2189 109.229 30.995 109.229C31.7735 109.283 32.5543 109.283 33.3352 109.228ZM16.9973 79.1303C17.7793 78.9463 18.573 78.8282 19.3293 78.5138C20.1218 78.4122 20.8944 78.2049 21.6601 77.9482C22.4561 77.8246 23.2334 77.5926 24.0108 77.3606C24.7951 77.2013 25.5794 77.0434 26.3404 76.7633C27.9056 76.4503 29.459 76.0686 30.9985 75.6101C31.7747 75.4192 32.5508 75.2298 33.3258 75.0389C33.6853 74.9593 34.0448 74.881 34.4043 74.8014C35.6321 74.5296 35.6321 74.5296 35.4991 73.0097C35.5551 72.0981 35.5563 71.1878 35.5003 70.2762C35.5493 70.0922 35.5481 69.9082 35.4979 69.7256C35.5376 69.4483 35.6555 69.0913 35.198 69.3082C35.0299 69.2835 34.8747 69.3247 34.7346 69.4359C34.6576 69.4497 34.5817 69.4648 34.5047 69.4785C34.4136 69.5046 34.3226 69.532 34.2316 69.5581C34.1954 69.5334 34.165 69.5416 34.1393 69.5828C33.0726 69.7558 32.0198 70.0098 30.9857 70.364C30.1967 70.4835 29.4217 70.6812 28.6595 70.9462C27.8682 71.0615 27.0932 71.2578 26.3287 71.5214C25.5386 71.6326 24.7671 71.8509 24.0003 72.1008C22.3592 72.455 20.7182 72.812 19.104 73.32C18.3921 73.4504 17.6836 73.5987 16.995 73.8582C16.1978 73.9515 15.4228 74.1712 14.6548 74.4362C13.8658 74.5488 13.0943 74.7602 12.3287 75.006C10.76 75.3465 9.1937 75.6979 7.65422 76.1922C6.21511 76.3199 6.21394 76.3199 6.22328 77.9688C6.22445 78.1486 6.24079 78.3271 6.24896 78.507C6.1089 79.4722 6.22912 80.447 6.18593 81.4149C6.17076 81.7567 6.33766 81.8487 6.59677 81.776C7.19202 81.6071 7.78727 81.4368 8.38252 81.268C8.93576 81.2158 9.47148 81.0634 9.99904 80.8657C10.7892 80.7517 11.563 80.5431 12.3263 80.2822C12.4454 80.2616 12.5644 80.241 12.6835 80.2204C12.7243 80.2026 12.7652 80.1847 12.806 80.1669C13.434 80.0831 14.0467 79.9074 14.656 79.7165C15.4368 79.5202 16.2176 79.3253 16.9973 79.1303ZM16.9985 58.6514C16.3904 58.7709 15.815 59.0139 15.2489 59.2953C15.1707 59.3214 15.0913 59.3489 15.0131 59.375C14.0934 59.6249 13.1982 59.9667 12.3205 60.3745C11.528 60.5928 10.7507 60.8715 9.9932 61.2243C9.2859 61.4014 8.58911 61.6129 7.94017 62.0014C7.8468 62.0248 7.75459 62.0495 7.66122 62.0728C6.22212 62.4463 6.22212 62.4463 6.22445 64.0965C6.22445 64.3244 6.23962 64.5524 6.24779 64.7803C6.23846 65.2759 6.22328 65.7729 6.22328 66.2685C6.21978 68.0081 6.22212 68.0081 7.65305 67.3518C8.45022 67.1143 9.23688 66.8397 10.0025 66.4841C10.7904 66.2411 11.577 65.9939 12.3287 65.6178C13.0675 65.4297 13.7876 65.1784 14.4774 64.8105C14.5369 64.7954 14.5965 64.7803 14.656 64.7652C15.4357 64.4837 16.2153 64.2036 16.995 63.9222C17.7851 63.6586 18.58 63.4128 19.3398 63.038C20.912 62.5492 22.4631 61.9767 23.9968 61.3383C24.7893 61.1186 25.5619 60.8234 26.3252 60.4939C27.8986 59.9708 29.4684 59.434 31.0044 58.7709C31.7957 58.5471 32.5754 58.278 33.3317 57.9197C33.9479 57.8194 34.5082 57.4872 35.1093 57.3252C35.5003 57.2195 35.6123 56.9668 35.5003 56.5371C35.5528 55.6268 35.5586 54.7152 35.4979 53.8049C35.5061 53.2832 35.5049 52.7615 35.5259 52.2412C35.5388 51.9199 35.4466 51.8334 35.1851 51.9405C34.5677 52.1931 33.9456 52.4292 33.3258 52.6709C31.7513 53.1583 30.2084 53.7638 28.6642 54.3678C27.8834 54.6534 27.1026 54.9376 26.3229 55.2232C25.1254 55.6667 23.9291 56.1087 22.7316 56.5522C22.3581 56.6263 22.0032 56.7678 21.6589 56.949C20.8606 57.1838 20.0658 57.4336 19.3095 57.8222C18.5158 58.0062 17.7595 58.337 16.9985 58.6514Z" fill="#5D7592"/>
<path d="M73.9989 114.128C73.8942 114.463 74.124 114.981 73.6348 115.106C72.9898 115.108 72.3458 115.112 71.7008 115.115C70.9408 115.057 70.182 115.056 69.4221 115.115C68.6655 115.053 67.9078 115.053 67.1513 115.115C66.3914 115.057 65.6325 115.056 64.8726 115.115C64.116 115.053 63.3584 115.053 62.6018 115.115C61.8419 115.057 61.083 115.056 60.3231 115.115C59.5666 115.053 58.8089 115.053 58.0523 115.115C57.2924 115.057 56.5336 115.056 55.7736 115.115C55.0171 115.052 54.2594 115.056 53.5028 115.112C53.2969 115.1 53.0899 115.079 52.884 115.078C52.0637 115.072 52.0637 115.075 52.0023 114.125C52.0011 113.208 52.0011 112.292 52 111.375C52.0011 110.5 52.0011 109.624 52.0023 108.748C52.0023 108.703 52.0023 108.656 52.0023 108.611C52.0455 107.694 52.0489 106.778 52 105.861C52.0011 104.985 52.0011 104.11 52.0023 103.234C52.0023 103.188 52.0023 103.142 52.0023 103.096C52.0455 102.179 52.0489 101.263 52 100.346C52.0011 99.4706 52.0011 98.595 52.0023 97.7193C52.0023 97.6738 52.0023 97.627 52.0023 97.5814C52.0455 96.6644 52.0489 95.7488 52 94.8318C52.0011 93.9561 52.0011 93.0804 52.0023 92.2048C52.0023 92.1593 52.0023 92.1124 52.0023 92.0669C52.0455 91.1499 52.0489 90.2342 52 89.3172C52.0011 88.4415 52.0011 87.5659 52.0023 86.6902C52.0023 86.6447 52.0023 86.5978 52.0023 86.5523C52.0455 85.6353 52.0489 84.7197 52 83.8026C52.0011 82.927 52.0011 82.0513 52.0023 81.1757C52.0023 81.1302 52.0023 81.0833 52.0023 81.0378C52.0455 80.1208 52.0489 79.2051 52 78.2881C52.0011 77.4124 52.0011 76.5368 52.0023 75.6611C52.0023 75.6156 52.0023 75.5687 52.0023 75.5232C52.0455 74.6062 52.0489 73.6905 52 72.7735C52.0011 71.8979 52.0011 71.0222 52.0023 70.1466C52.0023 70.1011 52.0023 70.0542 52.0023 70.0087C52.0023 69.0916 52.0023 68.176 52.0023 67.259C52.0501 66.3364 52.0489 65.4153 52.0023 64.4927C52.0455 63.5757 52.0489 62.6601 52 61.743C52.0011 60.8674 52.0011 59.9917 52.0023 59.1161C52.0023 59.0706 52.0023 59.0237 52.0023 58.9782C52.0455 58.0612 52.0489 57.1455 52 56.2285C52.0011 55.3528 52.0011 54.4772 52.0023 53.6015C52.0023 53.556 52.0023 53.5091 52.0023 53.4636C52.0455 52.5466 52.0489 51.631 52 50.7139C52.0011 49.8383 52.0011 48.9626 52.0023 48.087C52.0023 48.0415 52.0023 47.9946 52.0023 47.9491C52.0455 47.032 52.0489 46.1164 52 45.1994C52.0011 44.3237 52.0011 43.4481 52.0023 42.5724C52.0023 42.5269 52.0023 42.48 52.0023 42.4345C52.0455 41.5175 52.0489 40.6018 52 39.6848C52.0011 38.8092 52.0011 37.9335 52.0023 37.0579C52.0023 37.0123 52.0023 36.9655 52.0023 36.92C52.0455 36.0029 52.0489 35.0873 52 34.1703C52.0023 33.2505 52.0046 32.3293 52.0068 31.4095C52.0057 31.364 52.0046 31.3185 52.0034 31.273C52.157 30.9724 52.339 31.182 52.4994 31.2468C53.5904 31.6853 54.678 32.1349 55.7668 32.5789C56.5085 32.9802 57.2787 33.2836 58.0546 33.5663C59.5666 34.2061 61.0785 34.8473 62.5904 35.4872C63.3527 35.814 64.1149 36.1422 64.8771 36.4704C65.2423 36.6566 65.5995 36.8675 66 36.9296C67.1195 37.4977 68.2673 37.968 69.4209 38.4189C70.165 38.794 70.9226 39.1249 71.7008 39.3801C72.3151 39.6545 72.9226 39.9606 73.5472 40.1937C73.8783 40.3178 73.9989 40.5425 74 40.9231C73.9511 41.4279 73.9499 41.9326 74 42.4359C73.942 43.357 73.9431 44.2782 74 45.1994C73.9511 46.1164 73.9499 47.0334 74 47.9504C73.942 48.8716 73.9431 49.7928 74 50.7139C73.9511 51.631 73.9499 52.548 74 53.465C73.942 54.3862 73.9431 55.3073 74 56.2285C73.9511 57.1455 73.9499 58.0625 74 58.9796C73.942 59.9007 73.9431 60.8219 74 61.743C73.9511 62.6601 73.9499 63.5771 74 64.4941C73.942 65.4153 73.9431 66.3364 74 67.259C73.9511 68.176 73.9499 69.093 74 70.01C73.942 70.9312 73.9431 71.8524 74 72.7735C73.9511 73.6905 73.9499 74.6076 74 75.5246C73.942 76.4458 73.9431 77.3669 74 78.2881C73.9511 79.2051 73.9499 80.1221 74 81.0392C73.942 81.9603 73.9431 82.8815 74 83.8026C73.9499 84.7197 73.9499 85.6367 74 86.5537C73.942 87.4749 73.9431 88.396 74 89.3172C73.9511 90.2342 73.9499 91.1512 74 92.0683C73.942 92.9894 73.9431 93.9106 74 94.8318C73.9511 95.7488 73.9499 96.6658 74 97.5828C73.942 98.504 73.9431 99.4251 74 100.346C73.9511 101.263 73.9499 102.18 74 103.097C73.942 104.019 73.9431 104.94 74 105.861C73.9511 106.778 73.9499 107.695 74 108.612C73.942 109.533 73.9431 110.454 74 111.375C73.9488 112.294 73.9522 113.211 73.9989 114.128Z" fill="#5D7592"/>
</svg>
