<svg width="23" height="24" viewBox="0 0 23 24" fill="none" xmlns="http://www.w3.org/2000/svg">
<circle cx="11.5" cy="12" r="11.5" fill="#5D7592"/>
<path d="M6.13474 15.8916C5.84104 16.1912 5.53704 16.5043 5.2296 16.8139C4.81905 17.2276 4.40632 17.6397 3.99328 18.0509C3.82487 18.2183 3.62397 18.2852 3.39339 18.209C3.18437 18.1399 3.0544 17.9893 3.01128 17.7734C2.96879 17.5613 3.04971 17.3857 3.19749 17.2373C3.47994 16.953 3.76332 16.6693 4.0467 16.3856C4.45506 15.9769 4.86404 15.5685 5.2724 15.1596C5.29802 15.1339 5.32146 15.1068 5.32864 15.0986C5.16461 14.7649 4.98152 14.4544 4.85436 14.1226C4.28541 12.6372 4.77406 10.8757 6.02038 9.88278C6.1213 9.80248 6.1666 9.72312 6.15473 9.59627C6.14473 9.48785 6.1488 9.37725 6.15817 9.26852C6.1866 8.94796 6.45186 8.74237 6.76805 8.79674C6.89053 8.81798 7.0105 8.85392 7.13142 8.88485C7.24639 8.91422 7.36106 8.94577 7.48947 8.97983C7.58789 8.74394 7.68412 8.51523 7.77879 8.28559C7.89533 8.00221 8.00875 7.71726 8.12654 7.4345C8.3743 6.84056 8.8867 6.50094 9.52751 6.50062C11.5271 6.50094 13.5264 6.5 15.526 6.5C16.2971 6.5 16.772 6.82556 17.0601 7.54073C17.252 8.01752 17.4507 8.49149 17.6522 8.98108C17.8534 8.92765 18.0468 8.8736 18.2414 8.82455C18.7182 8.70488 19.0001 8.92703 18.9997 9.42068C18.9997 9.5091 19.0004 9.59783 18.9994 9.68625C18.9941 10.0987 18.7392 10.3721 18.3308 10.4039C18.3061 10.4058 18.2814 10.4095 18.2668 10.4111C18.3589 10.7289 18.4711 11.0376 18.5348 11.3556C18.6017 11.6905 18.6526 12.0342 18.6579 12.3751C18.6732 13.4005 18.6507 14.4266 18.6673 15.4523C18.6757 15.9819 18.3199 16.2697 17.8634 16.2468C17.6244 16.235 17.3844 16.2456 17.1451 16.2431C16.6974 16.2387 16.4121 15.9569 16.4065 15.512C16.4034 15.263 16.4059 15.014 16.4059 14.7549C16.3509 14.7521 16.3059 14.7478 16.2609 14.7478C14.8031 14.7471 13.3452 14.7496 11.8874 14.7425C11.7377 14.7418 11.6562 14.7893 11.5759 14.9112C11.0178 15.7579 10.2399 16.3018 9.25257 16.523C8.21933 16.7546 7.24827 16.5768 6.35219 16.0075C6.29939 15.9741 6.24784 15.9388 6.19535 15.9054C6.1866 15.8997 6.17504 15.9 6.13474 15.8916ZM8.40273 9.01732C8.44023 9.02232 8.46022 9.02669 8.48022 9.02732C9.66186 9.06481 10.6254 9.54409 11.3837 10.4486C11.425 10.498 11.5137 10.5302 11.5809 10.5311C12.117 10.5383 12.6532 10.5364 13.1893 10.5364C14.3866 10.5364 15.5841 10.537 16.7814 10.5355C17.1295 10.5348 17.2791 10.3318 17.1532 10.0193C16.8245 9.2051 16.4949 8.39088 16.1515 7.58291C16.0075 7.24392 15.7335 7.05395 15.357 7.05333C13.5036 7.05083 11.6505 7.05114 9.79715 7.05427C9.4091 7.05489 9.13759 7.24642 8.98262 7.60072C8.90763 7.77194 8.83827 7.94597 8.76735 8.11906C8.64612 8.41619 8.52615 8.71332 8.40273 9.01732ZM8.42023 15.482C9.88151 15.4795 11.0675 14.2941 11.0728 12.8306C11.0785 11.3637 9.88932 10.1665 8.42054 10.1599C6.95645 10.1533 5.7495 11.3659 5.75481 12.8375C5.76043 14.2916 6.96239 15.4845 8.42023 15.482ZM16.1006 13.4433C16.1006 13.4427 16.1006 13.4424 16.1006 13.4418C16.4071 13.4418 16.7139 13.4449 17.0204 13.4408C17.2507 13.4377 17.3426 13.3465 17.3454 13.1193C17.3491 12.8438 17.3482 12.5685 17.3451 12.2929C17.3426 12.0786 17.2451 11.9736 17.0314 11.9717C16.418 11.9671 15.8047 11.9667 15.1914 11.9705C14.9783 11.9717 14.8762 12.0792 14.8734 12.2901C14.8699 12.5604 14.8696 12.8306 14.8721 13.1009C14.8743 13.3455 14.968 13.4402 15.2117 13.4427C15.5082 13.4452 15.8044 13.4433 16.1006 13.4433Z" fill="white"/>
</svg>
