<svg width="23" height="24" viewBox="0 0 23 24" fill="none" xmlns="http://www.w3.org/2000/svg">
<circle cx="11.5" cy="12" r="11.5" fill="#811B18"/>
<path d="M18.966 9.17271C18.8598 8.86324 18.5169 8.77171 18.1795 8.86324C18.0015 8.91164 17.8228 8.95887 17.6327 9.00991C17.4582 8.58632 17.2925 8.17066 17.1159 7.75939C17.0202 7.53645 16.9349 7.3009 16.7955 7.10612C16.5089 6.70571 16.1006 6.50183 15.6031 6.50125C13.5362 6.49949 11.4693 6.49978 9.40273 6.50095C8.75269 6.50125 8.23728 6.85091 7.9897 7.45138C7.7782 7.96502 7.56641 8.47837 7.34758 9.00873C7.15632 8.95623 6.9721 8.89492 6.78289 8.85766C6.65177 8.83185 6.50891 8.81219 6.38072 8.83713C6.15602 8.88113 6.04162 9.05068 6.0029 9.27098C5.99527 9.3141 5.98676 9.36074 5.99556 9.40211C6.06245 9.71686 5.89172 9.87644 5.65499 10.0574C4.06009 11.2774 3.54499 13.5573 4.43088 15.3552C4.90199 16.3109 5.68374 17.0349 6.6726 17.4332C7.86826 17.9149 9.06333 17.8653 10.2188 17.2877C11.1827 16.8058 11.8703 16.0539 12.2701 15.0519C12.3364 14.8858 12.4118 14.8289 12.5949 14.8304C13.7973 14.8404 15 14.8357 16.2027 14.8357C16.2511 14.8357 16.2995 14.8357 16.3649 14.8357C16.3678 14.8967 16.3714 14.948 16.3722 14.9997C16.3761 15.2437 16.3678 15.4887 16.3851 15.7318C16.4086 16.0642 16.6761 16.33 17.007 16.3435C17.3438 16.3569 17.6817 16.3567 18.0185 16.344C18.3561 16.3311 18.6339 16.0621 18.6456 15.7233C18.6624 15.2305 18.6565 14.7371 18.6562 14.2437C18.6559 13.5843 18.6615 12.9248 18.6468 12.2657C18.6336 11.6746 18.4937 11.107 18.2675 10.5608C18.2564 10.5341 18.2482 10.5062 18.232 10.4596C18.2622 10.5456 18.7131 10.32 18.758 10.2827C18.9349 10.1369 19 9.95212 19 9.72771C19 9.61478 19 9.50155 18.9997 9.38861C18.9991 9.30736 18.9874 9.23549 18.966 9.17271ZM8.29449 16.4634C6.63916 16.4731 5.27893 15.1261 5.26925 13.4672C5.25957 11.8022 6.6022 10.447 8.27395 10.4341C9.92928 10.4212 11.2921 11.777 11.3015 13.4464C11.3106 15.0959 9.95715 16.4538 8.29449 16.4634ZM11.6157 10.579C11.5482 10.5787 11.464 10.5417 11.4162 10.4933C10.6104 9.67667 9.64503 9.21378 8.4922 9.15863C8.40977 9.15482 8.32734 9.14719 8.22936 9.14044C8.37427 8.78579 8.51391 8.44405 8.65383 8.10231C8.72423 7.931 8.79082 7.75792 8.86797 7.58955C9.0252 7.24692 9.29595 7.05889 9.67349 7.0583C11.5453 7.05449 13.4174 7.05566 15.2892 7.05713C15.6615 7.05742 15.9507 7.22375 16.0962 7.56256C16.4541 8.39565 16.7944 9.23637 17.1338 10.0771C17.2502 10.3657 17.105 10.5673 16.7914 10.5819C16.7718 10.5828 16.7524 10.5831 16.7328 10.5831C15.0273 10.5825 13.3215 10.5837 11.6157 10.579ZM17.3244 13.2044C17.3224 13.408 17.225 13.5206 17.0232 13.5227C16.3881 13.5288 15.7527 13.5285 15.1176 13.5224C14.9205 13.5203 14.8234 13.4162 14.8187 13.217C14.8117 12.9243 14.8105 12.6309 14.8184 12.3385C14.824 12.1331 14.9284 12.0387 15.134 12.0366C15.4467 12.0334 15.7595 12.0357 16.0722 12.0357C16.3752 12.0357 16.6782 12.0343 16.9809 12.036C17.2297 12.0375 17.3236 12.1325 17.325 12.3845C17.3271 12.6576 17.3274 12.931 17.3244 13.2044Z" fill="white"/>
<path d="M9.8405 13.8539L9.34269 13.3561L9.74716 12.9516C9.99338 12.7054 9.99338 12.3059 9.74716 12.0597C9.50095 11.8135 9.10145 11.8135 8.85524 12.0597L8.45076 12.4641L7.95294 11.9663C7.70673 11.7201 7.30723 11.7201 7.06102 11.9663C6.81481 12.2125 6.81481 12.612 7.06102 12.8582L7.55884 13.3561L6.96768 13.9472C6.72147 14.1934 6.72147 14.5929 6.96768 14.8391C7.21389 15.0854 7.61339 15.0854 7.8596 14.8391L8.45076 14.248L8.94858 14.7458C9.19479 14.992 9.59429 14.992 9.8405 14.7458C10.0869 14.4994 10.0867 14.1001 9.8405 13.8539Z" fill="white"/>
</svg>
