<svg width="23" height="23" viewBox="0 0 23 23" fill="none" xmlns="http://www.w3.org/2000/svg">
<circle cx="11.5" cy="11.5" r="11.5" fill="#3A9C3E"/>
<path d="M18.9637 8.8509C18.8504 8.52079 18.4847 8.42316 18.1248 8.52079C17.9349 8.57242 17.7443 8.62279 17.5416 8.67724C17.3554 8.22541 17.1786 7.78203 16.9903 7.34335C16.8883 7.10555 16.7972 6.85429 16.6486 6.64653C16.3429 6.21942 15.9073 6.00196 15.3766 6.00133C13.172 5.99945 10.9673 5.99977 8.76291 6.00102C8.06953 6.00133 7.51977 6.3743 7.25568 7.01481C7.03008 7.56269 6.80417 8.11027 6.57075 8.67599C6.36674 8.61998 6.17024 8.55458 5.96842 8.51484C5.82856 8.48731 5.67617 8.46634 5.53944 8.49294C5.29976 8.53988 5.17773 8.72073 5.13642 8.95572C5.12829 9.00171 5.11922 9.05146 5.1286 9.09558C5.19994 9.43132 5.01784 9.60154 4.76533 9.7946C3.0641 11.0959 2.51465 13.5278 3.4596 15.4455C3.96212 16.465 4.79599 17.2372 5.85077 17.6621C7.12614 18.1759 8.40089 18.123 9.6334 17.5069C10.6616 16.9928 11.395 16.1909 11.8215 15.122C11.8922 14.9449 11.9726 14.8842 12.1679 14.8858C13.4504 14.8964 14.7333 14.8914 16.0162 14.8914C16.0678 14.8914 16.1195 14.8914 16.1892 14.8914C16.1924 14.9565 16.1961 15.0112 16.1971 15.0663C16.2011 15.3266 16.1924 15.5879 16.2108 15.8473C16.2359 16.2018 16.5212 16.4853 16.8742 16.4997C17.2334 16.5141 17.5938 16.5138 17.953 16.5003C18.3132 16.4866 18.6095 16.1996 18.622 15.8382C18.6399 15.3126 18.6336 14.7863 18.6333 14.26C18.633 13.5566 18.6389 12.8532 18.6233 12.1501C18.6092 11.5196 18.4599 10.9141 18.2187 10.3315C18.2068 10.3031 18.198 10.2733 18.1808 10.2236C18.2131 10.3153 18.694 10.0746 18.7419 10.0349C18.9305 9.87939 19 9.68227 19 9.4429C19 9.32243 19 9.20166 18.9997 9.08119C18.9991 8.99452 18.9865 8.91786 18.9637 8.8509ZM7.58078 16.6277C5.8151 16.638 4.36419 15.2012 4.35387 13.4317C4.34354 11.6557 5.77568 10.2101 7.55888 10.1964C9.32457 10.1826 10.7783 11.6288 10.7883 13.4095C10.798 15.1689 9.35429 16.6173 7.58078 16.6277ZM11.1234 10.3509C11.0515 10.3506 10.9616 10.3112 10.9106 10.2596C10.0511 9.38846 9.02137 8.8947 7.79168 8.83588C7.70375 8.83181 7.61583 8.82367 7.51132 8.81648C7.66589 8.43818 7.81483 8.07366 7.96409 7.70913C8.03918 7.5264 8.11021 7.34179 8.1925 7.16218C8.36021 6.79672 8.64902 6.59615 9.05172 6.59552C11.0483 6.59146 13.0452 6.59271 15.0418 6.59427C15.4389 6.59459 15.7474 6.772 15.9026 7.1334C16.2844 8.02203 16.6473 8.91879 17.0093 9.81556C17.1336 10.1235 16.9787 10.3384 16.6442 10.3541C16.6232 10.355 16.6026 10.3553 16.5816 10.3553C14.7624 10.3547 12.9429 10.3559 11.1234 10.3509ZM17.2127 13.1514C17.2105 13.3685 17.1067 13.4887 16.8914 13.4909C16.214 13.4974 15.5362 13.4971 14.8588 13.4906C14.6485 13.4884 14.545 13.3773 14.54 13.1648C14.5324 12.8526 14.5312 12.5397 14.5396 12.2277C14.5456 12.0087 14.657 11.9079 14.8763 11.9057C15.2099 11.9023 15.5434 11.9048 15.877 11.9048C16.2002 11.9048 16.5234 11.9032 16.8463 11.9051C17.1117 11.9067 17.2118 12.008 17.2134 12.2768C17.2155 12.5681 17.2159 12.8598 17.2127 13.1514Z" fill="white"/>
<path d="M7.27301 13.9591C7.33653 13.8734 7.39504 13.7955 7.45293 13.7169C7.94324 13.0501 8.43168 12.3818 8.92449 11.7169C9.16949 11.3862 9.57532 11.3377 9.84379 11.5995C10.0656 11.8161 10.0838 12.1302 9.88165 12.4075C9.53558 12.8831 9.18513 13.3555 8.83657 13.8296C8.56841 14.1944 8.30057 14.5596 8.0321 14.9244C7.702 15.3731 7.29836 15.4385 6.84466 15.1118C6.40941 14.7983 5.9748 14.4842 5.54488 14.1637C5.33711 14.0092 5.25983 13.7933 5.32553 13.5417C5.38749 13.3036 5.55145 13.1603 5.79238 13.1121C5.9723 13.0761 6.13093 13.1337 6.27581 13.2394C6.55773 13.445 6.83996 13.6497 7.12251 13.8546C7.16819 13.8878 7.21513 13.9191 7.27301 13.9591Z" fill="white"/>
</svg>
