<svg width="134" height="135" viewBox="0 0 134 135" fill="none" xmlns="http://www.w3.org/2000/svg">
<path d="M69.6747 0C69.7925 0.05265 69.9062 0.1188 70.0294 0.15525C72.5624 0.91125 74.2966 2.53125 75.1793 5.0058C75.7736 6.6744 76.8742 7.76115 78.534 8.3565C82.8241 9.8982 84.8074 14.4437 83.0191 18.6354C82.8512 19.0296 82.8715 19.2483 83.1788 19.5534C90.8481 27.1782 98.5079 34.8138 106.161 42.4562C106.438 42.7329 106.644 42.7883 107.027 42.6276C111.332 40.8186 115.813 42.7707 117.414 47.1528C118.001 48.7634 119.077 49.819 120.697 50.3969C126.091 52.3233 127.681 58.9802 123.642 63.0504C116.391 70.3607 109.096 77.6277 101.764 84.8583C97.682 88.8827 91.0132 87.3126 89.0692 81.9356C88.4762 80.2967 87.3932 79.2247 85.7551 78.6334C81.4162 77.0661 79.4654 72.5598 81.2402 68.3006C81.3201 68.1088 81.3769 67.7673 81.2727 67.662C79.5277 65.8787 77.7542 64.1223 75.8778 62.2499C75.645 62.5415 75.4703 62.8101 75.2483 63.0315C54.9035 83.3099 34.5559 103.59 14.2071 123.868C11.5211 126.545 7.94575 127.254 4.71966 125.757C-0.286679 123.435 -1.58497 116.905 2.15828 112.857C2.44934 112.543 2.75665 112.246 3.0599 111.943C23.3276 91.742 43.5939 71.5419 63.8629 51.3432C64.0226 51.1853 64.2 51.0449 64.3083 50.9504C62.0583 48.704 59.8502 46.4994 57.5745 44.2287C56.3927 44.7863 55.0037 45.117 53.5348 44.9861C50.3236 44.7012 48.098 43.038 46.9526 40.0626C46.2839 38.3225 45.1995 37.1709 43.4328 36.5243C38.1327 34.5857 36.6597 27.9666 40.6182 23.9139C43.0889 21.384 45.6219 18.9121 48.1264 16.4146C52.3705 12.1838 56.6363 7.97175 60.8507 3.71115C62.4346 2.1114 64.0281 0.58185 66.2903 0C67.418 0 68.547 0 69.6747 0ZM83.9153 64.6623C90.3946 58.1945 96.9063 51.6942 103.35 45.2615C95.6947 37.6191 87.9821 29.9201 80.3548 22.3061C73.8715 28.7766 67.3611 35.2769 60.9225 41.7029C68.5741 49.3439 76.284 57.0429 83.9153 64.6623ZM66.9482 53.4951C66.8263 53.6774 66.7086 53.9352 66.5204 54.1229C46.2311 74.3567 25.935 94.5851 5.64024 114.815C5.4331 115.021 5.21921 115.223 5.02155 115.438C3.71108 116.86 3.48635 118.932 4.46243 120.563C5.95702 123.059 9.24268 123.371 11.4074 121.214C31.847 100.842 52.2852 80.4695 72.7221 60.0966C72.8792 59.94 73.0294 59.7767 73.135 59.6673C71.1084 57.645 69.1034 55.6443 66.9482 53.4951ZM91.8377 78.6159C92.1965 79.4691 92.5173 80.2818 92.8774 81.077C93.5015 82.454 94.9271 83.318 96.4095 83.2437C97.5697 83.1857 98.5133 82.6889 99.331 81.8721C106.41 74.8022 113.498 67.743 120.583 60.6798C120.726 60.5367 120.871 60.3936 121.005 60.2424C122.861 58.1472 122.09 55.0327 119.475 54.0405C118.97 53.8488 118.44 53.6868 117.992 53.4006C117.519 53.0982 117.267 53.2332 116.915 53.5842C108.706 61.7855 100.484 69.9746 92.2655 78.1664C92.1098 78.323 91.9595 78.4863 91.8377 78.6159ZM75.0791 11.0552C74.9478 11.2185 74.7975 11.448 74.608 11.637C66.4446 19.7802 58.2771 27.9194 50.111 36.0585C50.0149 36.1544 49.8741 36.234 49.8349 36.3474C49.7726 36.5256 49.7076 36.7565 49.7685 36.9171C50.0176 37.5651 50.3141 38.1956 50.5943 38.8314C51.1169 40.0194 51.9779 40.8146 53.2708 41.0832C54.8263 41.4072 56.0826 40.8577 57.1779 39.7643C64.2528 32.6997 71.3385 25.6446 78.4175 18.5828C78.6869 18.3141 78.9482 18.0266 79.1594 17.7107C80.5322 15.6506 79.6982 12.9411 77.4293 12.0339C76.6996 11.7437 75.9794 11.4318 75.0791 11.0552ZM46.7821 33.7743C55.3123 25.2585 63.848 16.7373 72.3728 8.2269C72.0818 7.53975 71.7772 6.79185 71.4496 6.05475C70.793 4.57515 69.6544 3.7908 68.0245 3.74895C66.7708 3.7179 65.7772 4.2579 64.908 5.1246C57.848 12.1729 50.7785 19.2132 43.7144 26.2575C43.491 26.4803 43.2676 26.7057 43.0767 26.9541C41.5293 28.9629 42.2171 31.8195 44.4847 32.8077C45.2658 33.1466 46.0551 33.4692 46.7821 33.7743ZM84.4406 71.3029C84.4352 72.9999 85.3666 74.3472 86.849 74.9372C87.3715 75.1451 87.9266 75.3071 88.3937 75.6041C88.9 75.9267 89.187 75.8106 89.5782 75.4178C97.701 67.3002 105.832 59.1908 113.982 51.1002C114.496 50.5886 114.736 50.2119 114.257 49.5464C113.976 49.1562 113.93 48.6041 113.668 48.195C113.274 47.5835 112.874 46.9125 112.312 46.4805C110.84 45.3479 108.76 45.5922 107.322 46.9962C105.518 48.7579 103.744 50.5508 101.957 52.3314C96.5828 57.6882 91.2122 63.0491 85.8282 68.3964C84.9726 69.2469 84.4704 70.227 84.4406 71.3029Z" fill="#ECF6FF"/>
<path d="M60.8763 135C59.8109 134.456 59.4657 133.59 59.4982 132.41C59.5659 130.027 59.5361 127.64 59.5131 125.256C59.5063 124.543 59.7053 123.952 60.1412 123.39C62.5401 120.292 64.912 117.175 67.3163 114.081C67.6561 113.645 67.801 113.215 67.7875 112.669C67.755 111.409 67.7685 110.148 67.7807 108.889C67.7915 107.678 68.5347 106.924 69.7545 106.866C69.9346 106.858 70.116 106.862 70.296 106.862C87.9414 106.862 105.587 106.861 123.232 106.869C123.676 106.869 124.151 106.889 124.556 107.045C125.351 107.348 125.722 108.002 125.726 108.847C125.733 110.197 125.704 111.548 125.745 112.897C125.756 113.246 125.89 113.649 126.099 113.926C128.481 117.064 130.88 120.191 133.296 123.303C133.777 123.921 134.006 124.564 133.996 125.349C133.968 127.756 133.951 130.165 134 132.572C134.025 133.752 133.617 134.572 132.496 135.002C108.623 135 84.7492 135 60.8763 135ZM128.035 122.908C127.968 122.775 127.942 122.694 127.892 122.629C126.29 120.539 124.697 118.443 123.068 116.374C122.913 116.176 122.536 116.056 122.263 116.056C105.256 116.041 88.2514 116.044 71.245 116.033C70.8132 116.033 70.5451 116.169 70.2893 116.509C68.796 118.483 67.2784 120.441 65.773 122.406C65.6633 122.549 65.5808 122.714 65.4616 122.908C86.3683 122.908 107.171 122.908 128.035 122.908ZM63.4188 131.102C85.6548 131.102 107.846 131.102 130.073 131.102C130.073 129.657 130.073 128.256 130.073 126.819C107.835 126.819 85.6454 126.819 63.4188 126.819C63.4188 128.261 63.4188 129.665 63.4188 131.102ZM71.6756 112.137C88.4193 112.137 105.12 112.137 121.815 112.137C121.815 111.643 121.815 111.204 121.815 110.735C105.085 110.735 88.4017 110.735 71.6756 110.735C71.6756 111.221 71.6756 111.68 71.6756 112.137Z" fill="#ECF6FF"/>
<path d="M98.5263 44.5784C98.4843 45.6301 98.1852 46.2079 97.5489 46.5778C96.8882 46.9625 96.2113 46.9517 95.5629 46.5508C95.3368 46.4104 95.1391 46.216 94.9496 46.0256C89.8255 40.9213 84.7027 35.8156 79.5813 30.7085C79.4067 30.5344 79.2293 30.3548 79.0912 30.1523C78.5524 29.3612 78.6716 28.3393 79.3593 27.6899C80.024 27.0635 81.0285 26.9852 81.7839 27.5171C81.9843 27.6589 82.163 27.8357 82.3376 28.0099C87.4455 33.098 92.5588 38.1821 97.6491 43.2892C98.0687 43.7117 98.3341 44.2882 98.5263 44.5784Z" fill="#ECF6FF"/>
</svg>
