<svg width="154" height="50" viewBox="0 0 154 50" fill="none" xmlns="http://www.w3.org/2000/svg">
<path d="M133.217 27.4806C133.127 27.8361 132.863 27.9105 132.364 27.9105H116.394C116.039 27.9105 115.829 27.8196 115.767 27.5715C115.763 27.5426 117.499 20.0554 121 4.90326H108.745C108.337 4.90326 108.089 4.77096 108.027 4.52704L108.906 0.558128C108.992 0.206714 109.306 0 109.833 0H152.301C152.684 0 153.051 0.214983 152.998 0.458905L152.086 4.39888C151.996 4.72548 151.723 4.89912 151.191 4.89912H138.429L133.217 27.4806Z" fill="#3A9C3E"/>
<path d="M35.3305 12.8411C33.7471 14.255 31.6607 14.7759 28.9722 14.7759H21.4139L23.6942 4.90326H28.3289C30.7659 4.90326 35.2604 5.22573 36.7036 8.26029C37.5737 10.0959 36.617 11.6876 35.3305 12.8411ZM48.8348 14.7759C53.1108 11.4065 53.552 5.37457 47.107 2.02166C44.1588 0.487845 39.3385 0 33.5121 0H11.0187C10.5734 0 10.0745 0.264594 9.98788 0.616008L3.83984 27.2863C3.88108 27.5343 3.98416 27.9229 4.33053 27.9229L17.5296 27.9105C18.0245 27.9105 18.3791 27.9105 18.5028 27.3813L20.2222 19.9396H24.189L34.5347 27.9064L51.7088 27.9147L40.1013 18.381C43.029 17.6906 46.3689 16.719 48.8348 14.7759Z" fill="#3A9C3E"/>
<path d="M87.4184 12.8411C85.835 14.255 83.7485 14.7759 81.0601 14.7759H73.4977L75.7779 4.90326H80.4168C82.8538 4.90326 87.3483 5.22573 88.7874 8.26029C89.6574 10.0959 88.7049 11.6876 87.4184 12.8411ZM100.919 14.7759C105.199 11.4065 105.64 5.37457 99.1908 2.02166C96.2425 0.487845 91.4223 0 85.5958 0H63.1025C62.6572 0 62.1582 0.264594 62.0716 0.616008L55.9277 27.2863C55.969 27.5343 56.0721 27.9229 56.4184 27.9229L69.6175 27.9105C70.1123 27.9105 70.467 27.9105 70.5907 27.3813L72.3101 19.9396H76.2769L86.6226 27.9064L103.797 27.9147L92.1892 18.3769C95.1169 17.6906 98.4527 16.719 100.919 14.7759Z" fill="#3A9C3E"/>
<path d="M11.7163 34.9961C12.8007 34.9961 13.3574 35.2855 13.7739 36.4844L17.1839 46.3778C17.2582 46.6465 17.1675 46.8325 16.8046 46.8325H14.079C13.8069 46.8325 13.7161 46.7664 13.6625 46.5969L13.011 44.6166H5.16414L3.64672 46.5969C3.5024 46.7664 3.35808 46.8325 3.10655 46.8325H0.290245C-0.0519997 46.8325 -0.0726169 46.6465 0.129431 46.3778L7.94746 36.4844C8.8876 35.302 9.6092 34.9961 10.4586 34.9961H11.7163ZM6.97021 42.3055H12.24L10.8132 37.9604C10.7968 37.8777 10.739 37.8405 10.6524 37.8405H10.5452C10.4545 37.8405 10.3844 37.8736 10.3267 37.9604L6.97021 42.3055Z" fill="#3A9C3E"/>
<path d="M27.566 34.9961C27.9288 34.9961 28.0897 35.0622 28.1804 35.2855L30.6874 41.0197L35.5778 35.4219C35.7964 35.1697 35.9572 35.0002 36.5509 35.0002H38.9343C39.3301 35.0002 39.2394 35.3227 39.0786 35.5253L30.4029 45.1458C29.1411 46.5679 27.7845 46.8367 26.4485 46.8367H24.6054C24.2796 46.8367 24.1559 46.6837 24.226 46.3984L24.6755 44.4181C24.7291 44.1287 24.927 43.9799 25.2362 43.9799H27.0423C27.7804 43.9799 28.1433 43.86 28.4319 43.5913L24.6218 35.5087C24.5146 35.2896 24.6054 35.0002 25.0012 35.0002H27.566V34.9961Z" fill="#3A9C3E"/>
<path d="M47.8243 34.9961C48.1294 34.9961 48.2408 35.1491 48.1872 35.4343L47.214 39.6968H48.3892C49.2551 39.6968 49.5644 39.5934 50.1046 39.0725L53.9847 35.2317C54.1826 35.0622 54.2733 34.9961 54.6527 34.9961H57.3618C57.704 34.9961 57.6876 35.2855 57.5226 35.4509L53.0652 39.6968C52.5951 40.1515 52.2158 40.4906 51.857 40.7634C52.2529 41.0528 52.5621 41.4414 52.8879 41.9624L55.5227 46.324C55.5928 46.4605 55.5599 46.8325 55.1434 46.8325H52.3807C52.0384 46.8325 51.9477 46.7664 51.857 46.5969L49.5644 42.6238C49.2757 42.1319 48.9871 41.9996 48.1006 41.9996H46.6945L45.7007 46.3984C45.6265 46.6878 45.4492 46.8367 45.1399 46.8367H42.7937C42.4886 46.8367 42.3607 46.6837 42.4308 46.3984L44.9049 35.4385C44.9791 35.1491 45.1771 35.0002 45.4822 35.0002H47.8243V34.9961Z" fill="#3A9C3E"/>
<path d="M66.7975 34.9963C67.1027 34.9963 67.2305 35.1493 67.1604 35.4346L65.3007 43.6866C65.2471 43.9057 65.3172 43.976 65.5357 43.976H72.7724L74.7021 35.4346C74.7764 35.1452 74.9537 34.9963 75.2794 34.9963H77.6257C77.9308 34.9963 78.0586 35.1493 78.005 35.4346L76.0546 43.976H78.7802C79.0854 43.976 79.2132 44.1289 79.1596 44.4142L77.9844 49.5573C77.9143 49.8467 77.7329 49.9955 77.4236 49.9955H75.4361C75.1104 49.9955 74.9867 49.8425 75.0568 49.5573L75.6711 46.8328H63.0906C62.0267 46.8328 61.5566 46.5103 61.5566 45.7992C61.5566 45.6462 61.5938 45.4767 61.6309 45.2907L63.8699 35.4304C63.9441 35.141 64.1214 34.9922 64.4307 34.9922H66.7975V34.9963Z" fill="#3A9C3E"/>
<path d="M90.0662 34.9961C90.3713 34.9961 90.4991 35.1491 90.429 35.4343L88.5529 43.7401C88.5158 43.86 88.5529 43.9096 88.6436 43.9096H88.7879C88.8951 43.9096 88.9693 43.8765 89.023 43.7897L94.9607 36.162C95.6988 35.2152 96.1359 34.9961 97.6492 34.9961H99.5253C100.498 34.9961 101.006 35.2648 101.006 36.1454C101.006 36.3811 100.969 36.687 100.898 37.026L98.7666 46.3943C98.713 46.7002 98.5151 46.8325 98.2058 46.8325H95.8761C95.5503 46.8325 95.4431 46.6961 95.5132 46.3943L97.3729 38.0885C97.41 37.9686 97.3729 37.919 97.2822 37.919H97.1379C97.0307 37.919 96.9564 37.9521 96.9028 38.0389L90.9445 45.6667C90.2064 46.63 89.7528 46.8325 88.256 46.8325H86.4128C85.4397 46.8325 84.916 46.5638 84.916 45.6667C84.916 45.431 84.9531 45.1416 85.0232 44.8026L87.1344 35.4343C87.2086 35.1449 87.4066 34.9961 87.7117 34.9961H90.0662Z" fill="#3A9C3E"/>
<path d="M118.677 34.9961C121.675 34.9961 122.974 35.8064 122.974 37.8363C122.974 38.3118 122.92 38.8534 122.125 42.3675C121.403 45.6129 119.704 46.8325 116.005 46.8325H110.373C107.375 46.8325 106.076 46.0222 106.076 43.9923C106.076 43.5169 106.13 42.9794 106.926 39.4611C107.647 36.2157 109.346 34.9961 113.045 34.9961H118.677ZM109.47 43.0662C109.47 43.8435 109.919 44.0626 111.132 44.0626H116.508C118.063 44.0626 118.55 43.6574 118.892 42.136C119.543 39.3288 119.576 39.0229 119.576 38.7707C119.576 37.9934 119.127 37.7909 117.935 37.7909H112.538C110.987 37.7909 110.496 38.1795 110.154 39.7009C109.507 42.5081 109.47 42.8099 109.47 43.0662Z" fill="#3A9C3E"/>
<path d="M133.214 34.9961C133.519 34.9961 133.63 35.1491 133.576 35.4343L132.62 39.5769H140.182L141.122 35.4343C141.196 35.1449 141.394 34.9961 141.7 34.9961H144.046C144.355 34.9961 144.462 35.1491 144.409 35.4343L141.918 46.3943C141.864 46.6837 141.667 46.8325 141.357 46.8325H139.011C138.706 46.8325 138.578 46.6796 138.648 46.3943L139.605 42.1649H132.042L131.086 46.3943C131.016 46.6837 130.834 46.8325 130.525 46.8325H128.179C127.87 46.8325 127.746 46.6796 127.816 46.3943L130.29 35.4343C130.364 35.1449 130.562 34.9961 130.867 34.9961H133.214Z" fill="#3A9C3E"/>
</svg>
