<svg width="154" height="50" viewBox="0 0 154 50" fill="none" xmlns="http://www.w3.org/2000/svg">
<path d="M133.713 27.4806C133.622 27.8361 133.357 27.9105 132.857 27.9105H116.827C116.471 27.9105 116.26 27.8196 116.198 27.5715C116.194 27.5426 117.936 20.0554 121.45 4.90326H109.149C108.74 4.90326 108.491 4.77096 108.429 4.52704L109.311 0.558128C109.398 0.206714 109.712 0 110.242 0H152.868C153.253 0 153.621 0.214983 153.567 0.458905L152.653 4.39888C152.562 4.72548 152.288 4.89912 151.754 4.89912H138.945L133.713 27.4806Z" fill="white"/>
<path d="M35.4618 12.8411C33.8725 14.255 31.7782 14.7759 29.0797 14.7759H21.4932L23.782 4.90326H28.434C30.8801 4.90326 35.3914 5.22573 36.84 8.26029C37.7133 10.0959 36.7531 11.6876 35.4618 12.8411ZM49.0165 14.7759C53.3084 11.4065 53.7513 5.37457 47.2823 2.02166C44.323 0.487845 39.4847 0 33.6366 0H11.0592C10.6122 0 10.1114 0.264594 10.0245 0.616008L3.85352 27.2863C3.8949 27.5343 3.99837 27.9229 4.34604 27.9229L17.5944 27.9105C18.0911 27.9105 18.447 27.9105 18.5712 27.3813L20.2971 19.9396H24.2787L34.663 27.9064L51.9012 27.9147L40.2504 18.381C43.189 17.6906 46.5414 16.719 49.0165 14.7759Z" fill="white"/>
<path d="M87.7435 12.8411C86.1542 14.255 84.06 14.7759 81.3614 14.7759H73.7708L76.0596 4.90326H80.7158C83.1618 4.90326 87.6732 5.22573 89.1176 8.26029C89.9909 10.0959 89.0348 11.6876 87.7435 12.8411ZM101.294 14.7759C105.59 11.4065 106.033 5.37457 99.5599 2.02166C96.6006 0.487845 91.7623 0 85.9142 0H63.3368C62.8898 0 62.389 0.264594 62.3021 0.616008L56.1353 27.2863C56.1766 27.5343 56.2801 27.9229 56.6278 27.9229L69.8762 27.9105C70.3728 27.9105 70.7288 27.9105 70.8529 27.3813L72.5788 19.9396H76.5604L86.9447 27.9064L104.183 27.9147L92.5322 18.3769C95.4707 17.6906 98.819 16.719 101.294 14.7759Z" fill="white"/>
<path d="M11.7586 34.9961C12.8471 34.9961 13.4058 35.2855 13.8239 36.4844L17.2467 46.3778C17.3212 46.6465 17.2301 46.8325 16.8659 46.8325H14.1301C13.857 46.8325 13.7659 46.7664 13.7121 46.5969L13.0582 44.6166H5.18197L3.65888 46.5969C3.51402 46.7664 3.36916 46.8325 3.11669 46.8325H0.289864C-0.0536588 46.8325 -0.074353 46.6465 0.12845 46.3778L7.97568 36.4844C8.91933 35.302 9.64363 34.9961 10.4962 34.9961H11.7586ZM6.99478 42.3055H12.2842L10.8522 37.9604C10.8356 37.8777 10.7777 37.8405 10.6908 37.8405H10.5831C10.4921 37.8405 10.4217 37.8736 10.3638 37.9604L6.99478 42.3055Z" fill="white"/>
<path d="M27.6684 34.9961C28.0326 34.9961 28.194 35.0622 28.2851 35.2855L30.8015 41.0197L35.7101 35.4219C35.9295 35.1697 36.0909 35.0002 36.6869 35.0002H39.0791C39.4765 35.0002 39.3854 35.3227 39.224 35.5253L30.5159 45.1458C29.2494 46.5679 27.8877 46.8367 26.5467 46.8367H24.6967C24.3697 46.8367 24.2456 46.6837 24.3159 46.3984L24.767 44.4181C24.8209 44.1287 25.0195 43.9799 25.3299 43.9799H27.1427C27.8836 43.9799 28.2478 43.86 28.5375 43.5913L24.7132 35.5087C24.6056 35.2896 24.6967 35.0002 25.094 35.0002H27.6684V34.9961Z" fill="white"/>
<path d="M48.0022 34.9961C48.3085 34.9961 48.4202 35.1491 48.3664 35.4343L47.3897 39.6968H48.5692C49.4384 39.6968 49.7488 39.5934 50.291 39.0725L54.1856 35.2317C54.3843 35.0622 54.4754 34.9961 54.8561 34.9961H57.5753C57.9189 34.9961 57.9023 35.2855 57.7368 35.4509L53.2627 39.6968C52.7909 40.1515 52.4101 40.4906 52.05 40.7634C52.4473 41.0528 52.7577 41.4414 53.0847 41.9624L55.7294 46.324C55.7998 46.4605 55.7667 46.8325 55.3487 46.8325H52.5756C52.2321 46.8325 52.1411 46.7664 52.05 46.5969L49.7488 42.6238C49.4591 42.1319 49.1694 41.9996 48.2795 41.9996H46.8682L45.8707 46.3984C45.7962 46.6878 45.6183 46.8367 45.3078 46.8367H42.9528C42.6466 46.8367 42.5183 46.6837 42.5886 46.3984L45.0719 35.4385C45.1464 35.1491 45.3451 35.0002 45.6514 35.0002H48.0022V34.9961Z" fill="white"/>
<path d="M67.0451 34.9963C67.3514 34.9963 67.4797 35.1493 67.4093 35.4346L65.5427 43.6866C65.4889 43.9057 65.5593 43.976 65.7786 43.976H73.0423L74.9793 35.4346C75.0538 35.1452 75.2317 34.9963 75.5587 34.9963H77.9137C78.22 34.9963 78.3483 35.1493 78.2945 35.4346L76.3368 43.976H79.0726C79.3789 43.976 79.5072 44.1289 79.4534 44.4142L78.2738 49.5573C78.2034 49.8467 78.0213 49.9955 77.7109 49.9955H75.716C75.389 49.9955 75.2649 49.8425 75.3352 49.5573L75.9519 46.8328H63.3243C62.2565 46.8328 61.7847 46.5103 61.7847 45.7992C61.7847 45.6462 61.8219 45.4767 61.8592 45.2907L64.1066 35.4304C64.1811 35.141 64.359 34.9922 64.6694 34.9922H67.0451V34.9963Z" fill="white"/>
<path d="M90.4004 34.9961C90.7066 34.9961 90.8349 35.1491 90.7646 35.4343L88.8814 43.7401C88.8442 43.86 88.8814 43.9096 88.9725 43.9096H89.1173C89.2249 43.9096 89.2994 43.8765 89.3532 43.7897L95.3131 36.162C96.054 35.2152 96.4927 34.9961 98.0117 34.9961H99.8948C100.872 34.9961 101.381 35.2648 101.381 36.1454C101.381 36.3811 101.343 36.687 101.273 37.026L99.1333 46.3943C99.0795 46.7002 98.8808 46.8325 98.5704 46.8325H96.232C95.905 46.8325 95.7974 46.6961 95.8678 46.3943L97.7344 38.0885C97.7716 37.9686 97.7344 37.919 97.6433 37.919H97.4985C97.3908 37.919 97.3163 37.9521 97.2625 38.0389L91.2819 45.6667C90.5411 46.63 90.0858 46.8325 88.5834 46.8325H86.7334C85.7566 46.8325 85.231 46.5638 85.231 45.6667C85.231 45.431 85.2682 45.1416 85.3386 44.8026L87.4576 35.4343C87.5321 35.1449 87.7308 34.9961 88.0371 34.9961H90.4004Z" fill="white"/>
<path d="M119.12 34.9961C122.129 34.9961 123.433 35.8064 123.433 37.8363C123.433 38.3118 123.379 38.8534 122.58 42.3675C121.856 45.6129 120.15 46.8325 116.438 46.8325H110.784C107.775 46.8325 106.472 46.0222 106.472 43.9923C106.472 43.5169 106.525 42.9794 107.324 39.4611C108.049 36.2157 109.754 34.9961 113.466 34.9961H119.12ZM109.878 43.0662C109.878 43.8435 110.329 44.0626 111.546 44.0626H116.943C118.503 44.0626 118.992 43.6574 119.335 42.136C119.989 39.3288 120.022 39.0229 120.022 38.7707C120.022 37.9934 119.571 37.7909 118.375 37.7909H112.957C111.401 37.7909 110.909 38.1795 110.565 39.7009C109.915 42.5081 109.878 42.8099 109.878 43.0662Z" fill="white"/>
<path d="M133.709 34.9961C134.016 34.9961 134.127 35.1491 134.074 35.4343L133.113 39.5769H140.704L141.648 35.4343C141.722 35.1449 141.921 34.9961 142.227 34.9961H144.582C144.892 34.9961 145 35.1491 144.946 35.4343L142.446 46.3943C142.393 46.6837 142.194 46.8325 141.884 46.8325H139.529C139.222 46.8325 139.094 46.6796 139.164 46.3943L140.125 42.1649H132.534L131.574 46.3943C131.503 46.6837 131.321 46.8325 131.011 46.8325H128.656C128.345 46.8325 128.221 46.6796 128.292 46.3943L130.775 35.4343C130.849 35.1449 131.048 34.9961 131.354 34.9961H133.709Z" fill="white"/>
</svg>
