<svg width="158" height="144" viewBox="0 0 158 144" fill="none" xmlns="http://www.w3.org/2000/svg">
<path d="M129.529 40.1155C115.945 18.4906 89.3948 7.14533 63.4256 13.9831C37.4564 20.826 19.9413 43.7817 18.7736 69.292L7 72.3922L16.1119 106.989L27.8855 103.889C41.4693 125.514 68.0249 136.859 93.989 130.016C119.958 123.173 137.473 100.223 138.641 74.7123L150.415 71.6121L141.303 37.0153L129.529 40.1155ZM64.1955 16.9099C88.5331 10.5005 113.396 20.9177 126.444 40.9262L122.905 41.8594C110.495 23.6916 87.5439 14.34 65.0777 20.26C42.6115 26.1799 27.2482 45.6173 25.3972 67.5431L21.8585 68.4762C23.3525 44.6332 39.858 23.3194 64.1955 16.9099ZM122.136 42.0633L95.636 49.0439C88.9257 44.1029 80.1248 42.1245 71.4412 44.414C62.7576 46.7034 56.0728 52.7559 52.6667 60.3637L26.1672 67.3442C28.0946 45.8366 43.2131 26.802 65.2714 20.9942C87.3297 15.1865 109.862 24.2933 122.136 42.0633ZM93.2191 127.089C68.8815 133.499 44.0188 123.081 30.9704 103.073L34.5091 102.14C46.9252 120.308 69.8707 129.654 92.337 123.739C114.803 117.819 130.166 98.3818 132.017 76.4561L135.556 75.523C134.062 99.3609 117.557 120.68 93.2191 127.089ZM35.2791 101.936L61.7786 94.9553C68.4889 99.8962 77.2898 101.875 85.9734 99.5852C94.657 97.2958 101.342 91.2432 104.748 83.6355L131.247 76.655C129.32 98.1626 114.201 117.197 92.1432 123.005C70.09 128.818 47.5524 119.701 35.2791 101.936ZM146.432 69.6336L18.6053 103.307L10.9823 74.3655L138.809 40.6917L146.432 69.6336Z" fill="#1F3A60"/>
<path d="M118.408 84.0387C118.673 83.7787 119 83.6155 119.377 83.5441C119.754 83.4727 120.177 83.5033 120.641 83.641H120.646C121.11 83.7787 121.483 83.9775 121.758 84.2427C122.039 84.5078 122.217 84.824 122.304 85.186C122.385 85.548 122.365 85.9406 122.242 86.3639C122.135 86.7361 121.962 87.042 121.733 87.2868C121.503 87.5264 121.238 87.6947 120.937 87.7865C120.636 87.8783 120.325 87.8834 120.004 87.8018L119.979 87.7967L120.284 86.7514L120.325 86.7565C120.483 86.7769 120.626 86.7667 120.764 86.7259C120.896 86.6851 121.019 86.6137 121.116 86.5117C121.218 86.4097 121.294 86.2721 121.34 86.1038C121.396 85.9049 121.396 85.7214 121.335 85.5429C121.274 85.3695 121.156 85.2115 120.988 85.0738C120.815 84.9361 120.595 84.829 120.325 84.7526H120.32C120.045 84.671 119.8 84.6404 119.581 84.6659C119.362 84.6863 119.178 84.7526 119.03 84.8698C118.882 84.9871 118.78 85.1401 118.724 85.339C118.678 85.497 118.668 85.6449 118.694 85.7877C118.719 85.9304 118.78 86.0528 118.872 86.1701C118.964 86.2874 119.086 86.3741 119.239 86.4454L119.27 86.4607L118.964 87.506L118.933 87.4958C118.622 87.3888 118.362 87.2154 118.158 86.9757C117.954 86.7361 117.822 86.4505 117.76 86.1242C117.699 85.7979 117.72 85.446 117.832 85.0789C117.944 84.6404 118.143 84.2988 118.408 84.0387Z" fill="#1F3A60"/>
<path d="M121.274 89.112L120.131 91.9368L119.29 91.5952L120.009 89.8207L119.193 89.4893L118.515 91.1618L117.725 90.8456L118.398 89.1732L117.562 88.8366L116.843 90.6162L116.001 90.2746L117.143 87.4497L121.274 89.112Z" fill="#1F3A60"/>
<path d="M119.729 92.8397L119.209 93.8442L115.257 91.8097L115.777 90.8052L119.729 92.8397ZM117.429 92.2992L116.945 93.2374C116.838 93.4516 116.802 93.6402 116.848 93.8187C116.894 93.9921 117.021 94.1348 117.225 94.2419H117.23C117.439 94.349 117.623 94.3694 117.791 94.3031C117.959 94.2368 118.097 94.0991 118.204 93.8901L118.688 92.9519L119.458 93.3496L118.852 94.5274C118.699 94.8232 118.51 95.0475 118.281 95.2056C118.051 95.3637 117.801 95.4453 117.531 95.4606C117.261 95.4708 116.985 95.4045 116.7 95.2617H116.695C116.414 95.1189 116.2 94.9303 116.052 94.7059C115.904 94.4765 115.828 94.2266 115.828 93.9513C115.828 93.6759 115.899 93.3904 116.052 93.0946L116.659 91.9168L117.429 92.2992Z" fill="#1F3A60"/>
<path d="M114.303 95.2206L113.635 96.2608C113.508 96.4546 113.452 96.633 113.467 96.786C113.482 96.939 113.564 97.0665 113.712 97.1633L113.717 97.1684C113.814 97.2296 113.916 97.2602 114.013 97.2602C114.11 97.2602 114.212 97.2194 114.303 97.148C114.395 97.0767 114.492 96.9696 114.579 96.8319L115.231 95.8223L115.833 96.2098L115.226 97.1531C115.104 97.3418 115.053 97.5152 115.063 97.663C115.078 97.8109 115.155 97.9333 115.298 98.0251L115.303 98.0302C115.43 98.1117 115.563 98.1321 115.695 98.0913C115.828 98.0506 115.945 97.9435 116.047 97.7854L116.7 96.7758L117.373 97.2092L116.557 98.4738C116.399 98.7185 116.226 98.9072 116.032 99.0347C115.843 99.1621 115.644 99.2284 115.445 99.2335C115.247 99.2386 115.048 99.1774 114.849 99.0551L114.844 99.05C114.701 98.9582 114.594 98.8409 114.523 98.7032C114.451 98.5605 114.41 98.4126 114.41 98.2494C114.41 98.0862 114.441 97.9282 114.517 97.7752L114.497 97.765C114.38 97.9282 114.237 98.0557 114.069 98.1423C113.9 98.229 113.727 98.2749 113.544 98.2698C113.36 98.2698 113.187 98.2137 113.023 98.1066L113.018 98.1015C112.804 97.9639 112.651 97.7854 112.554 97.5763C112.463 97.3673 112.437 97.1327 112.473 96.8829C112.508 96.6279 112.616 96.373 112.789 96.1027L113.63 94.7923L114.303 95.2206ZM117.679 96.7197L117.067 97.6732L113.329 95.2665L113.941 94.313L117.679 96.7197Z" fill="#1F3A60"/>
<path d="M115.18 100.519L114.477 101.401L112.452 99.7845L112.162 100.152L112.31 99.3204L113.355 102.808L112.758 103.558L109.286 100.779L109.99 99.8966L112.034 101.528L112.361 101.12L112.182 101.992L111.116 98.4842L111.713 97.7397L115.18 100.519Z" fill="#1F3A60"/>
<path d="M108.383 102.003C108.74 101.901 109.102 101.911 109.469 102.028C109.837 102.145 110.194 102.375 110.535 102.716C110.877 103.058 111.106 103.41 111.229 103.777C111.346 104.144 111.356 104.506 111.259 104.863C111.157 105.22 110.953 105.557 110.642 105.868C110.367 106.143 110.071 106.332 109.755 106.434C109.439 106.536 109.128 106.556 108.817 106.495C108.511 106.434 108.23 106.286 107.991 106.061L107.97 106.046L108.74 105.271L108.776 105.297C108.903 105.388 109.036 105.45 109.174 105.48C109.311 105.511 109.449 105.501 109.587 105.46C109.724 105.419 109.857 105.332 109.979 105.21C110.122 105.067 110.214 104.899 110.239 104.715C110.265 104.532 110.239 104.338 110.153 104.139C110.066 103.94 109.923 103.736 109.724 103.537C109.52 103.333 109.316 103.191 109.113 103.104C108.909 103.017 108.715 102.992 108.531 103.022C108.348 103.053 108.185 103.14 108.037 103.288C107.919 103.405 107.843 103.532 107.797 103.665C107.751 103.803 107.746 103.94 107.771 104.083C107.797 104.226 107.863 104.363 107.96 104.501L107.981 104.527L107.216 105.297L107.19 105.271C106.966 105.026 106.823 104.751 106.757 104.445C106.696 104.139 106.711 103.823 106.813 103.507C106.915 103.191 107.098 102.895 107.374 102.62C107.69 102.314 108.026 102.105 108.383 102.003Z" fill="#1F3A60"/>
<path d="M108.485 107.856L107.608 108.565L106.512 107.203L105.135 108.315L106.232 109.676L105.349 110.385L102.555 106.928L103.432 106.219L104.559 107.611L105.936 106.5L104.809 105.108L105.691 104.399L108.485 107.856Z" fill="#1F3A60"/>
<path d="M102.305 111.262L102.825 112.078L102.249 112.445L98.5881 109.513L99.5875 108.871L102.305 111.262ZM102.295 109.258L100.505 110.405L99.8527 109.855L102.066 108.432L102.295 109.258ZM103.417 111.695L102.54 112.256L102.02 111.441L102.321 111.247L101.275 107.785L102.275 107.142L103.417 111.695Z" fill="#1F3A60"/>
<path d="M96.0336 110.788L96.7271 112.175L97.1758 111.951L97.344 110.13L98.4403 109.58L98.2109 111.609C98.4964 111.578 98.7616 111.619 99.0165 111.742C99.2715 111.864 99.4601 112.058 99.5927 112.323L99.5978 112.328C99.7304 112.593 99.7865 112.853 99.761 113.113C99.7355 113.373 99.6386 113.613 99.4652 113.837C99.2918 114.062 99.0471 114.255 98.7259 114.413L97.0279 115.265L95.0342 111.293L96.0336 110.788ZM97.6449 113.995L98.2313 113.7C98.4148 113.608 98.5423 113.48 98.6035 113.327C98.6647 113.169 98.6545 113.011 98.5678 112.838L98.5627 112.833C98.476 112.664 98.3536 112.557 98.1956 112.512C98.0375 112.471 97.859 112.496 97.6704 112.593L97.084 112.889L97.6449 113.995Z" fill="#1F3A60"/>
<path d="M91.1793 111.9L91.6535 113.623L91.3629 113.705C91.2864 113.807 91.2354 113.919 91.2099 114.031C91.1844 114.143 91.1793 114.276 91.1895 114.424C91.2048 114.572 91.2303 114.745 91.2762 114.944L91.7606 117.264L88.5125 118.156L87.5743 114.745L87.0389 114.893L86.5647 113.17L87.5437 112.899L87.7783 113.746L90.4297 113.017L90.1952 112.17L91.1793 111.9ZM90.1748 114.689C90.1595 114.556 90.1595 114.439 90.1697 114.332C90.1799 114.225 90.2054 114.128 90.2462 114.041L90.2411 114.016L88.6655 114.449L89.3641 116.984L90.5623 116.652L90.2462 115.128C90.2156 114.964 90.1901 114.822 90.1748 114.689Z" fill="#1F3A60"/>
<path d="M87.1612 118.457L86.0445 118.635L85.6417 116.076L85.1777 116.147L85.8508 115.632L84.2752 118.916L83.3268 119.064L82.6333 114.673L83.7449 114.5L84.1528 117.085L84.6678 117.004L83.9488 117.529L85.5295 114.22L86.4678 114.072L87.1612 118.457Z" fill="#1F3A60"/>
<path d="M80.242 118.309L80.293 119.273L79.6097 119.309L77.8862 114.944L79.0743 114.883L80.242 118.309ZM81.2312 116.565L79.11 116.672L78.8142 115.867L81.4402 115.734L81.2312 116.565ZM80.9966 119.237L79.9564 119.288L79.9054 118.319L80.2675 118.299L81.0782 114.776L82.2663 114.714L80.9966 119.237Z" fill="#1F3A60"/>
<path d="M77.5292 114.908L77.3354 119.349L74.3474 119.217L74.3882 118.309L76.2442 118.391L76.3972 114.857L77.5292 114.908Z" fill="#1F3A60"/>
<path d="M73.4805 119.161L72.3587 119.003L72.6035 117.274L70.8494 117.024L70.6047 118.753L69.4829 118.595L70.1101 114.194L71.2319 114.352L70.982 116.127L72.7361 116.377L72.9859 114.602L74.1077 114.76L73.4805 119.161Z" fill="#1F3A60"/>
<path d="M68.6059 114.041C68.8762 114.306 69.0546 114.628 69.1413 115.005C69.228 115.382 69.2127 115.801 69.0903 116.259V116.265C68.973 116.723 68.7793 117.096 68.5192 117.381C68.2592 117.667 67.9481 117.861 67.581 117.957C67.2139 118.054 66.8162 118.049 66.3878 117.937C65.9493 117.825 65.5975 117.636 65.3272 117.371C65.057 117.106 64.8785 116.79 64.7918 116.412C64.7052 116.035 64.7256 115.617 64.8428 115.163V115.158C64.9601 114.699 65.1488 114.327 65.4088 114.041C65.6689 113.751 65.9799 113.557 66.3419 113.46C66.704 113.363 67.1068 113.368 67.5453 113.486C67.9838 113.593 68.3357 113.781 68.6059 114.041ZM66.7295 114.408C66.551 114.48 66.3929 114.602 66.2604 114.776C66.1278 114.954 66.0258 115.173 65.9544 115.444V115.449C65.883 115.719 65.8626 115.964 65.8932 116.183C65.9238 116.402 66.0003 116.586 66.1227 116.729C66.2451 116.876 66.4133 116.978 66.6173 117.029C66.8162 117.08 67.0099 117.075 67.1884 117.009C67.3668 116.943 67.5249 116.82 67.6575 116.647C67.7901 116.474 67.892 116.249 67.9634 115.974V115.969C68.0348 115.699 68.0552 115.454 68.0246 115.235C67.994 115.015 67.9175 114.832 67.7952 114.684C67.6728 114.536 67.5096 114.439 67.3057 114.383C67.1017 114.332 66.9079 114.337 66.7295 114.408Z" fill="#1F3A60"/>
<path d="M64.0628 112.711C64.2974 112.996 64.4402 113.333 64.481 113.715C64.5217 114.098 64.4555 114.516 64.2821 114.97C64.1087 115.423 63.8793 115.775 63.5886 116.03C63.3031 116.285 62.9716 116.443 62.6045 116.499C62.2374 116.555 61.8499 116.499 61.4368 116.341C61.0748 116.203 60.7842 116.01 60.5598 115.76C60.3355 115.51 60.1927 115.235 60.1264 114.929C60.0601 114.623 60.0805 114.312 60.1876 113.996L60.1927 113.97L61.2125 114.363L61.2023 114.404C61.1717 114.556 61.1666 114.704 61.1972 114.842C61.2278 114.98 61.289 115.102 61.3859 115.214C61.4827 115.321 61.6102 115.408 61.7734 115.474C61.9671 115.546 62.1507 115.561 62.3292 115.515C62.5076 115.469 62.6759 115.362 62.8238 115.204C62.9716 115.046 63.0991 114.832 63.2011 114.567V114.562C63.3031 114.296 63.3541 114.052 63.349 113.832C63.3439 113.608 63.2929 113.425 63.1909 113.266C63.0889 113.108 62.9411 112.996 62.7473 112.92C62.5943 112.859 62.4464 112.838 62.3037 112.853C62.1609 112.869 62.0283 112.92 61.9111 113.001C61.7938 113.083 61.6867 113.2 61.6051 113.343L61.5898 113.368L60.5751 112.981L60.5853 112.95C60.7179 112.644 60.9116 112.405 61.1666 112.221C61.4215 112.038 61.7173 111.931 62.0487 111.895C62.3802 111.859 62.7269 111.91 63.0889 112.048C63.5019 112.201 63.8283 112.425 64.0628 112.711Z" fill="#1F3A60"/>
<path d="M58.3671 113.939L59.4634 114.49L59.0554 115.301L55.8533 113.699L56.2612 112.884L57.3575 113.429L58.9382 110.263L59.9478 110.767L58.3671 113.939Z" fill="#1F3A60"/>
<path d="M55.1038 113.286L54.1452 112.685L55.527 110.492L55.1293 110.242L55.9706 110.298L52.6206 111.726L51.8098 111.216L54.1809 107.453L55.1344 108.055L53.7372 110.268L54.1758 110.543L53.2885 110.467L56.659 109.019L57.4646 109.528L55.1038 113.286Z" fill="#1F3A60"/>
<path d="M53.6811 107.086L50.9225 110.574L50.0353 109.87L51.1367 108.478L51.0296 108.392L48.8013 108.891L47.8325 108.126L50.5707 107.525L50.4789 107.637L50.5044 104.567L51.5803 105.419L51.5599 107.724L51.667 107.81L52.7939 106.383L53.6811 107.086Z" fill="#1F3A60"/>
<path d="M46.4763 105.506L45.7981 106.199L45.3086 105.72L47.3482 101.493L48.1997 102.324L46.4763 105.506ZM46.3029 106.689L45.5584 105.959L46.2366 105.266L46.4967 105.516L49.6376 103.721L50.4892 104.552L46.3029 106.689ZM48.4241 105.047L46.9046 103.558L47.2921 102.798L49.1736 104.639L48.4241 105.047Z" fill="#1F3A60"/>
<path d="M72.7011 71.7806C72.5787 71.3267 72.3595 71.0208 72.0331 70.8576C71.7068 70.6945 71.3142 70.6741 70.8502 70.7964L69.8865 71.0514L70.6258 73.8253L71.5895 73.5703C72.0535 73.4479 72.385 73.2338 72.5889 72.9227C72.7878 72.6168 72.8286 72.2395 72.7113 71.7908L72.7011 71.7806Z" fill="#1F3A60"/>
<path d="M53.2688 78.2921C53.1209 77.7465 52.917 77.2978 52.6416 76.946C52.3714 76.5941 52.0501 76.3494 51.6881 76.2117C51.3261 76.0791 50.9335 76.0638 50.5204 76.176C50.1176 76.2831 49.7862 76.487 49.5363 76.7828C49.2865 77.0785 49.1335 77.4457 49.0723 77.8893C49.0111 78.3329 49.0519 78.8275 49.1998 79.3782L49.2049 79.3884C49.3477 79.934 49.5567 80.3827 49.8321 80.7396C50.1023 81.0965 50.4236 81.3413 50.7856 81.4739C51.1476 81.6064 51.5351 81.6217 51.9431 81.5147C52.3663 81.4025 52.7028 81.1985 52.9476 80.8977C53.1923 80.5968 53.3453 80.2297 53.4014 79.7861C53.4575 79.3425 53.4167 78.853 53.2739 78.3074L53.2688 78.2921Z" fill="#1F3A60"/>
<path d="M82.4045 70.5467C82.2618 70.0011 82.0527 69.5524 81.7774 69.2006C81.502 68.8488 81.1859 68.604 80.8238 68.4663C80.4618 68.3287 80.0692 68.3185 79.6562 68.4306C79.2534 68.5377 78.9219 68.7417 78.6721 69.0374C78.4222 69.3332 78.2693 69.7003 78.2081 70.1439C78.1469 70.5875 78.1877 71.0821 78.3355 71.6277L78.3406 71.6379C78.4834 72.1835 78.6925 72.6322 78.9678 72.9892C79.2381 73.3461 79.5593 73.5908 79.9213 73.7234C80.2833 73.8611 80.6709 73.8713 81.0788 73.7642C81.502 73.652 81.8385 73.4481 82.0833 73.1472C82.328 72.8464 82.481 72.4793 82.5371 72.0356C82.5983 71.592 82.5524 71.1025 82.4096 70.5569L82.4045 70.5467Z" fill="#1F3A60"/>
<path d="M91.1798 70.0265C91.1187 69.7971 91.0116 69.6186 90.8586 69.486C90.7056 69.3534 90.5119 69.277 90.2722 69.2566C90.0326 69.2362 89.7521 69.2668 89.4258 69.3534L88.1816 69.6849L88.7578 71.8418L90.0683 71.495C90.5221 71.3726 90.8433 71.1891 91.0371 70.9392C91.2308 70.6894 91.2818 70.3885 91.19 70.0418L91.1798 70.0265Z" fill="#1F3A60"/>
<path d="M37.4364 84.319C37.3752 84.0895 37.2682 83.9111 37.1152 83.7785C36.9622 83.6459 36.7634 83.5694 36.5237 83.549C36.284 83.5287 36.0036 83.5592 35.6773 83.6459L34.4331 83.9774L35.0093 86.1394L36.3197 85.7926C36.7735 85.6702 37.0948 85.4867 37.2885 85.2368C37.4823 84.987 37.5333 84.6861 37.4364 84.3394V84.319Z" fill="#1F3A60"/>
<path d="M26.2492 82.8608L26.2084 82.871L26.1472 86.4199L28.0644 85.91L26.2492 82.8608Z" fill="#1F3A60"/>
<path d="M34.0659 82.5803L35.1469 82.2947C35.5905 82.1775 35.9016 81.999 36.08 81.7542C36.2636 81.5095 36.3095 81.2239 36.2228 80.9027L36.2177 80.8925C36.1361 80.5917 35.9678 80.3826 35.7129 80.2704C35.4528 80.1582 35.1418 80.148 34.7747 80.2449L33.5305 80.5764L34.0659 82.5803Z" fill="#1F3A60"/>
<path d="M87.8044 68.2927L88.8854 68.0071C89.329 67.8899 89.6401 67.7114 89.8185 67.4666C90.0021 67.2219 90.048 66.9363 89.9613 66.6151L89.9562 66.6049C89.8746 66.3041 89.7063 66.095 89.4463 65.9828C89.1862 65.8707 88.8752 65.8605 88.5081 65.9573L87.2639 66.2888L87.8044 68.2927Z" fill="#1F3A60"/>
<path d="M131.799 57.4115C131.656 56.8659 131.447 56.4172 131.171 56.0653C130.896 55.7135 130.58 55.4688 130.218 55.3311C129.856 55.1934 129.463 55.1832 129.05 55.2954C128.647 55.4025 128.316 55.6064 128.066 55.9022C127.816 56.1979 127.663 56.565 127.602 57.0087C127.541 57.4523 127.582 57.9469 127.73 58.4925L127.735 58.5027C127.877 59.0483 128.087 59.497 128.362 59.8539C128.632 60.2108 128.953 60.4556 129.315 60.5882C129.677 60.7258 130.065 60.736 130.473 60.6289C130.896 60.5168 131.233 60.3077 131.477 60.012C131.722 59.7111 131.875 59.344 131.931 58.9004C131.992 58.4568 131.946 57.9673 131.804 57.4217L131.799 57.4115Z" fill="#1F3A60"/>
<path d="M105.574 63.0408C105.452 62.587 105.233 62.2811 104.906 62.1179C104.58 61.9547 104.187 61.9343 103.723 62.0567L102.76 62.3116L103.499 65.0855L104.463 64.8306C104.927 64.7082 105.258 64.494 105.462 64.183C105.661 63.877 105.702 63.4997 105.585 63.051L105.574 63.0408Z" fill="#1F3A60"/>
<path d="M137.372 43.0527L13.3945 75.7119L20.0436 100.952L144.026 68.2928L137.372 43.0527ZM29.9918 89.1375L28.9465 87.3784L26.1166 88.1279L26.0809 90.1726L23.7608 90.7896L24.3778 81.331L26.4123 80.7905L27.0854 80.612L32.3169 88.5155L29.9918 89.1375ZM39.7156 85.298C39.5677 85.7365 39.2924 86.1189 38.8947 86.4453C38.4969 86.7716 37.987 87.0164 37.365 87.1795L35.4273 87.6945L33.2195 88.2809L30.9096 79.6024L32.0161 79.3067L34.9531 78.5265C35.5242 78.3735 36.0443 78.3328 36.4981 78.399C36.957 78.4653 37.3395 78.6336 37.6454 78.8987C37.9513 79.1639 38.1655 79.5259 38.2879 79.9797L38.293 79.9899C38.3797 80.3163 38.3848 80.6375 38.3032 80.9485C38.2216 81.2596 38.0737 81.5349 37.8596 81.7797C37.6454 82.0244 37.3752 82.2131 37.059 82.3457L37.0692 82.3865C37.472 82.2998 37.8596 82.3049 38.2267 82.4069C38.5938 82.5037 38.9151 82.6771 39.1853 82.9321C39.4555 83.187 39.6391 83.5031 39.7411 83.8805L39.7462 83.8907C39.8686 84.3904 39.8635 84.8595 39.7156 85.298ZM45.3449 85.0532L43.137 85.6396L41.3014 78.7356L38.9049 79.3729L38.4357 77.5985L45.4265 75.7374L45.9007 77.5118L43.5144 78.1492L45.3449 85.0532ZM55.6398 80.2347C55.4715 80.9995 55.1146 81.6471 54.5741 82.1825C54.0285 82.7179 53.3146 83.1003 52.4325 83.34C51.5606 83.5745 50.7498 83.5898 50.0105 83.3961C49.2711 83.2023 48.6389 82.8148 48.1137 82.2335C47.5885 81.6573 47.2009 80.9027 46.9562 79.9797L46.9511 79.9695C46.7063 79.0466 46.6706 78.2053 46.844 77.4404C47.0174 76.6756 47.3743 76.028 47.9199 75.4926C48.4655 74.9572 49.1743 74.5748 50.0411 74.3402C50.9232 74.1057 51.734 74.0853 52.4733 74.279C53.2127 74.4728 53.8449 74.8603 54.3701 75.4365C54.8953 76.0127 55.2778 76.7623 55.5276 77.6852L55.5327 77.6954C55.7673 78.6285 55.8081 79.4698 55.6398 80.2347ZM65.9194 79.582L64.0837 72.678L60.6062 73.6009L62.4419 80.5049L60.234 81.0913L57.9241 72.4128L65.8174 70.312L68.1273 78.9905L65.9194 79.582ZM74.9701 72.9176C74.8274 73.4479 74.552 73.9017 74.1441 74.279C73.7362 74.6564 73.2059 74.9317 72.5583 75.1051L71.0643 75.5028L71.7374 78.0421L69.5295 78.6285L67.2196 69.95L69.4275 69.3636L70.9215 68.9659C71.5691 68.7925 72.1606 68.7721 72.7062 68.8996C73.2518 69.0271 73.7158 69.2871 74.0982 69.6746C74.4857 70.0622 74.756 70.5721 74.9242 71.189L74.9293 71.1992C75.1027 71.8162 75.1129 72.3873 74.9701 72.9176ZM84.7704 72.4893C84.6021 73.2541 84.2452 73.9017 83.7047 74.4371C83.1591 74.9725 82.4453 75.36 81.5631 75.5946C80.6912 75.8291 79.8805 75.8444 79.1411 75.6507C78.4018 75.4569 77.7695 75.0694 77.2392 74.4881C76.714 73.9119 76.3265 73.1573 76.0817 72.2343L76.0766 72.2241C75.8319 71.3012 75.7962 70.4599 75.9695 69.695C76.1429 68.9302 76.4998 68.2826 77.0454 67.7472C77.591 67.2118 78.2998 66.8294 79.1666 66.5948C80.0487 66.3603 80.8595 66.3399 81.5988 66.5337C82.3382 66.7274 82.9705 67.1149 83.4957 67.6911C84.0209 68.2673 84.4084 69.0169 84.6531 69.9398L84.6582 69.95C84.903 70.8831 84.9387 71.7244 84.7704 72.4893ZM93.454 71.0106C93.3062 71.4491 93.0308 71.8315 92.6331 72.1579C92.2354 72.4842 91.7255 72.7289 91.1034 72.8921L89.1658 73.4071L86.9579 73.9935L84.648 65.315L85.7545 65.0192L88.6916 64.2391C89.2626 64.0861 89.7776 64.0453 90.2366 64.1116C90.6955 64.1779 91.0779 64.3462 91.3838 64.6113C91.6898 64.8765 91.9039 65.2385 92.0263 65.6923L92.0314 65.7025C92.1181 66.0339 92.1232 66.3501 92.0416 66.6611C91.96 66.9722 91.8121 67.2475 91.5929 67.4923C91.3787 67.737 91.1085 67.9257 90.7923 68.0583L90.8025 68.099C91.2054 68.0124 91.5929 68.0175 91.96 68.1143C92.3271 68.2112 92.6484 68.3846 92.9186 68.6395C93.1889 68.8945 93.3724 69.2106 93.4744 69.588L93.4795 69.5982C93.6121 70.0979 93.6019 70.567 93.454 71.0106ZM95.1469 71.8162L92.837 63.1377L98.7876 61.557L99.2567 63.3315L95.514 64.3258L95.9678 66.0391L99.4862 65.1059L99.9298 66.7682L96.4115 67.7013L96.8806 69.4554L100.623 68.4611L101.092 70.2355L95.1469 71.8162ZM107.849 64.1779C107.706 64.7082 107.436 65.162 107.022 65.5393C106.609 65.9167 106.084 66.192 105.437 66.3603L103.943 66.758L104.616 69.2973L102.408 69.8837L100.098 61.2052L102.306 60.6188L103.8 60.2211C104.447 60.0477 105.039 60.0273 105.585 60.1548C106.13 60.2823 106.594 60.5423 106.977 60.9298C107.359 61.3174 107.634 61.8222 107.803 62.4443L107.808 62.4544C107.976 63.0765 107.986 63.6476 107.849 64.1779ZM110.352 67.7727L108.042 59.0942L113.993 57.5135L114.462 59.288L110.719 60.2823L111.173 61.9955L114.691 61.0624L115.135 62.7247L111.617 63.6578L112.086 65.4119L115.828 64.4176L116.303 66.192L110.352 67.7727ZM123.283 64.3309L122.355 60.8381L118.898 61.7559L119.826 65.2487L117.618 65.8351L115.308 57.1566L117.516 56.5702L118.424 59.9814L121.881 59.0636L120.973 55.6524L123.181 55.066L125.491 63.7445L123.283 64.3309ZM134.17 59.3543C134.001 60.1191 133.644 60.7667 133.104 61.3021C132.558 61.8375 131.844 62.225 130.962 62.4595C130.09 62.6941 129.28 62.7094 128.54 62.5156C127.801 62.3219 127.169 61.9344 126.643 61.3582C126.118 60.7769 125.731 60.0273 125.486 59.1044L125.481 59.0942C125.236 58.1713 125.2 57.3299 125.374 56.5651C125.547 55.8002 125.904 55.1527 126.45 54.6173C126.995 54.0819 127.704 53.6995 128.571 53.4649C129.453 53.2303 130.264 53.21 131.003 53.4037C131.742 53.5975 132.375 53.985 132.9 54.5612C133.425 55.1374 133.808 55.8869 134.052 56.8098L134.057 56.82C134.297 57.7481 134.338 58.5894 134.17 59.3543Z" fill="#1F3A60"/>
<path d="M38.2415 59.6607C37.9763 59.9208 37.65 60.0839 37.2727 60.1553C36.8953 60.2267 36.4721 60.1961 36.0081 60.0584H36.003C35.539 59.9208 35.1668 59.7219 34.8914 59.4568C34.6161 59.1916 34.4325 58.8755 34.3458 58.5135C34.2642 58.1514 34.2846 57.7588 34.407 57.3356C34.5141 56.9634 34.6875 56.6574 34.9169 56.4127C35.1464 56.173 35.4115 56.0047 35.7124 55.913C36.0132 55.8212 36.3242 55.8161 36.6455 55.9028L36.671 55.9079L36.365 56.9532L36.3242 56.9481C36.1662 56.9277 36.0234 56.9379 35.8857 56.9787C35.7532 57.0194 35.6308 57.0908 35.5339 57.1928C35.4319 57.2948 35.3554 57.4325 35.3095 57.6007C35.2534 57.7996 35.2534 57.9832 35.3146 58.1616C35.3758 58.335 35.4931 58.4931 35.6614 58.6307C35.8347 58.7684 36.054 58.8755 36.3242 58.952H36.3293C36.6047 59.0336 36.8494 59.0641 37.0687 59.0387C37.288 59.0183 37.4715 58.952 37.6194 58.8347C37.7673 58.7174 37.8692 58.5644 37.9253 58.3656C37.9712 58.2075 37.9814 58.0596 37.9559 57.9169C37.9304 57.7741 37.8692 57.6517 37.7775 57.5395C37.6857 57.4274 37.5633 57.3356 37.4103 57.2591L37.3848 57.2438L37.6908 56.1985L37.7214 56.2087C38.0324 56.3158 38.2925 56.4892 38.4964 56.7288C38.7004 56.9685 38.833 57.254 38.8941 57.5803C38.9553 57.9067 38.9349 58.2585 38.8228 58.6256C38.7055 59.059 38.5066 59.4007 38.2415 59.6607Z" fill="#1F3A60"/>
<path d="M35.3757 54.5919L36.5179 51.7671L37.3592 52.1087L36.6403 53.8883L37.4561 54.2197L38.1343 52.5472L38.9246 52.8634L38.2465 54.5358L39.0827 54.8724L39.8017 53.0928L40.643 53.4345L39.5008 56.2593L35.3757 54.5919Z" fill="#1F3A60"/>
<path d="M36.9209 50.8595L37.4359 49.855L41.3876 51.8895L40.8675 52.894L36.9209 50.8595ZM39.2205 51.4051L39.705 50.4669C39.812 50.2527 39.8477 50.064 39.7967 49.8856C39.7508 49.7122 39.6234 49.5694 39.4194 49.4624H39.4143C39.2104 49.3553 39.0217 49.3349 38.8534 49.4012C38.6852 49.4675 38.5475 49.6051 38.4404 49.8142L37.956 50.7524L37.186 50.3547L37.7928 49.1768C37.9458 48.8811 38.1345 48.6567 38.3639 48.4986C38.5934 48.3406 38.8432 48.259 39.1135 48.2437C39.3837 48.2335 39.6591 48.2998 39.9446 48.4426H39.9497C40.2302 48.5853 40.4443 48.774 40.5922 48.9983C40.7401 49.2278 40.8165 49.4777 40.8165 49.753C40.8165 50.0283 40.7452 50.3139 40.5922 50.6096L39.9854 51.7875L39.2205 51.4051Z" fill="#1F3A60"/>
<path d="M38.9707 46.9845L39.5826 46.031L43.3202 48.4377L42.7083 49.3913L38.9707 46.9845ZM42.3462 48.4785L43.0142 47.4383C43.1417 47.2446 43.1978 47.0661 43.1825 46.9131C43.1672 46.7551 43.0856 46.6327 42.9377 46.5358L42.9326 46.5307C42.8357 46.4695 42.7338 46.4389 42.6369 46.4389C42.5349 46.444 42.438 46.4797 42.3462 46.5511C42.2494 46.6225 42.1576 46.7296 42.0709 46.8673L41.4182 47.8769L40.8165 47.4893L41.4233 46.546C41.5457 46.3574 41.6018 46.184 41.5865 46.0361C41.5712 45.8882 41.4947 45.7659 41.3519 45.6741L41.3468 45.669C41.2194 45.5874 41.0868 45.567 40.9542 45.6078C40.8216 45.6537 40.7044 45.7557 40.6024 45.9137L39.9497 46.9233L39.2766 46.4899L40.0925 45.2254C40.2506 44.9806 40.4239 44.792 40.6177 44.6645C40.8063 44.537 41.0052 44.4707 41.2041 44.4656C41.4029 44.4605 41.6018 44.5217 41.8006 44.6441L41.8057 44.6492C41.9485 44.741 42.0556 44.8582 42.127 44.9959C42.1984 45.1387 42.2392 45.2866 42.2392 45.4497C42.2392 45.6129 42.2086 45.771 42.1321 45.9239L42.1525 45.9341C42.2698 45.771 42.4125 45.6435 42.5808 45.5568C42.7491 45.4701 42.9224 45.4242 43.106 45.4293C43.2896 45.4344 43.4629 45.4854 43.6261 45.5925L43.6312 45.5976C43.8453 45.7353 44.0034 45.9137 44.0952 46.1228C44.187 46.3319 44.2125 46.5664 44.1768 46.8163C44.1411 47.0661 44.034 47.3262 43.8606 47.5964L43.0193 48.9069L42.3462 48.4785Z" fill="#1F3A60"/>
<path d="M41.4692 43.1855L42.178 42.3034L44.2023 43.9197L44.4929 43.5526L44.3451 44.3838L43.2998 40.896L43.8964 40.1465L47.3688 42.9254L46.6651 43.8076L44.6204 42.1708L44.2941 42.5787L44.4725 41.7068L45.5382 45.2149L44.9417 45.9593L41.4692 43.1855Z" fill="#1F3A60"/>
<path d="M48.266 41.7019C47.9091 41.8039 47.5471 41.7937 47.18 41.6764C46.8128 41.5592 46.4559 41.3297 46.1143 40.9881C45.7726 40.6464 45.5432 40.2946 45.4208 39.9275C45.3035 39.5604 45.2933 39.1983 45.3902 38.8414C45.4871 38.4845 45.6961 38.1479 46.0072 37.8369C46.2825 37.5615 46.5783 37.3729 46.8944 37.2709C47.2105 37.1689 47.5216 37.1485 47.8326 37.2097C48.1386 37.276 48.4139 37.4188 48.6587 37.6431L48.6791 37.6584L47.9091 38.4335L47.8734 38.408C47.7459 38.3162 47.6134 38.255 47.4757 38.2244C47.338 38.1938 47.2004 38.204 47.0627 38.2448C46.925 38.2856 46.7924 38.3723 46.6701 38.4947C46.5273 38.6425 46.4406 38.8057 46.41 38.9893C46.3794 39.1728 46.41 39.3666 46.4967 39.5655C46.5834 39.7643 46.7261 39.9683 46.925 40.1671C47.129 40.3711 47.3329 40.5139 47.5369 40.6006C47.7408 40.6872 47.9346 40.7127 48.1182 40.6821C48.3017 40.6515 48.4649 40.5649 48.6128 40.417C48.7301 40.2997 48.8065 40.1722 48.8524 40.0397C48.8983 39.902 48.9034 39.7643 48.8779 39.6215C48.8524 39.4788 48.7861 39.3411 48.6893 39.2034L48.674 39.1779L49.4388 38.408L49.4643 38.4335C49.6887 38.6782 49.8314 38.9536 49.8977 39.2595C49.9589 39.5655 49.9436 39.8816 49.8416 40.1977C49.7397 40.5139 49.551 40.8096 49.2807 41.085C48.9595 41.3909 48.623 41.6 48.266 41.7019Z" fill="#1F3A60"/>
<path d="M48.1641 35.8431L49.0462 35.1343L50.1425 36.4957L51.5192 35.3842L50.4229 34.0227L51.2999 33.314L54.0942 36.7711L53.2172 37.4799L52.0903 36.0878L50.7136 37.1994L51.8404 38.5914L50.9634 39.3002L48.1641 35.8431Z" fill="#1F3A60"/>
<path d="M53.2324 32.0086L54.1095 31.4477L54.6346 32.2635L54.3287 32.4573L55.374 35.9195L54.3746 36.562L53.2324 32.0086ZM54.344 32.442L53.8239 31.6261L54.4001 31.2539L58.0612 34.1858L57.0618 34.8283L54.344 32.442ZM54.3542 34.4408L56.144 33.2935L56.7966 33.8442L54.5837 35.2668L54.3542 34.4408Z" fill="#1F3A60"/>
<path d="M60.616 32.911L59.9225 31.5241L59.4738 31.7484L59.3055 33.5688L58.2092 34.1195L58.4387 32.0901C58.1531 32.1207 57.888 32.0799 57.633 31.9575C57.3832 31.8351 57.1894 31.6414 57.0569 31.3762V31.3711C56.9243 31.106 56.8682 30.8459 56.8937 30.5859C56.9192 30.3258 57.0161 30.0862 57.1894 29.8618C57.3628 29.6374 57.6075 29.4437 57.9288 29.2856L59.6268 28.4341L61.6205 32.4113L60.616 32.911ZM59.0047 29.7037L58.4183 29.9995C58.2347 30.0913 58.1073 30.2187 58.0461 30.3717C57.9849 30.5298 57.9951 30.6878 58.0818 30.8612V30.8663C58.1684 31.0346 58.2908 31.1417 58.4489 31.1875C58.607 31.2283 58.7854 31.2028 58.9741 31.106L59.5554 30.8153L59.0047 29.7037Z" fill="#1F3A60"/>
<path d="M65.4702 31.7994L64.996 30.076L65.2866 29.9944C65.3631 29.8924 65.4141 29.7802 65.4396 29.6681C65.4651 29.5559 65.4702 29.4233 65.46 29.2754C65.4447 29.1276 65.4192 28.9542 65.3733 28.7553L64.8889 26.4353L68.137 25.543L69.0752 28.9542L69.6106 28.8063L70.0848 30.5298L69.1058 30.8L68.8712 29.9536L66.2198 30.6828L66.4543 31.5292L65.4702 31.7994ZM66.4747 29.0154C66.49 29.148 66.49 29.2652 66.4798 29.3723C66.4696 29.4794 66.4441 29.5763 66.4033 29.663L66.4084 29.6885L67.984 29.255L67.2855 26.7208L66.0872 27.0523L66.4033 28.5769C66.439 28.7349 66.4594 28.8828 66.4747 29.0154Z" fill="#1F3A60"/>
<path d="M69.4883 25.2474L70.605 25.0689L71.0078 27.6286L71.4718 27.5573L70.8038 28.0723L72.3794 24.7885L73.3278 24.6406L74.0213 29.0309L72.9097 29.2093L72.5018 26.6241L71.9868 26.7057L72.7058 26.1805L71.1251 29.4898L70.1868 29.6376L69.4883 25.2474Z" fill="#1F3A60"/>
<path d="M75.653 24.4623L76.6931 24.4113L76.7441 25.3801L76.3821 25.4005L75.5714 28.9239L74.3833 28.9851L75.653 24.4623ZM75.4184 27.1342L77.5447 27.0271L77.8404 27.8276L75.2093 27.9602L75.4184 27.1342ZM76.4025 25.3954L76.3566 24.4317L77.0399 24.396L78.7582 28.7607L77.5702 28.8219L76.4025 25.3954Z" fill="#1F3A60"/>
<path d="M79.1201 28.7962L79.3139 24.355L82.3019 24.4876L82.2611 25.3952L80.4051 25.3136L80.2521 28.8472L79.1201 28.7962Z" fill="#1F3A60"/>
<path d="M83.1689 24.5435L84.2907 24.7015L84.046 26.4301L85.8 26.6799L86.0448 24.9514L87.1666 25.1094L86.5394 29.515L85.4176 29.3569L85.6674 27.5825L83.9134 27.3326L83.6635 29.1071L82.5417 28.949L83.1689 24.5435Z" fill="#1F3A60"/>
<path d="M88.0434 29.6579C87.7731 29.3927 87.5947 29.0715 87.508 28.6942C87.4213 28.3168 87.4366 27.8987 87.559 27.4398V27.4347C87.6763 26.9758 87.8649 26.6036 88.1301 26.318C88.3901 26.0325 88.7012 25.8387 89.0683 25.7418C89.4354 25.6449 89.8331 25.65 90.2615 25.7622C90.7 25.8744 91.0518 26.0631 91.322 26.3282C91.5923 26.5934 91.7708 26.9146 91.8574 27.2868C91.9441 27.6591 91.9288 28.0823 91.8065 28.5361V28.5412C91.6892 29.0001 91.5005 29.3723 91.2405 29.6579C90.9804 29.9434 90.6694 30.1372 90.3073 30.2392C89.9453 30.336 89.5425 30.3309 89.104 30.2137C88.6655 30.1117 88.3136 29.923 88.0434 29.6579ZM89.9198 29.2958C90.0983 29.2244 90.2564 29.1021 90.3889 28.9287C90.5215 28.7502 90.6235 28.531 90.6949 28.2607V28.2556C90.7663 27.9854 90.7867 27.7406 90.751 27.5214C90.7204 27.3021 90.6439 27.1186 90.5215 26.9758C90.3991 26.8279 90.2309 26.7259 90.0269 26.6749C89.828 26.624 89.6343 26.6291 89.4558 26.6953C89.2774 26.7616 89.1193 26.884 88.9867 27.0574C88.8541 27.2307 88.7522 27.4551 88.6808 27.7304V27.7355C88.6094 28.0058 88.589 28.2505 88.6196 28.4698C88.6502 28.6891 88.7267 28.8726 88.849 29.0205C88.9714 29.1684 89.1346 29.2652 89.3385 29.3213C89.5476 29.3723 89.7414 29.3672 89.9198 29.2958Z" fill="#1F3A60"/>
<path d="M92.5868 30.9941C92.3522 30.7086 92.2094 30.372 92.1686 29.9896C92.1278 29.6072 92.1941 29.1891 92.3675 28.7353C92.5409 28.2865 92.7703 27.9296 93.061 27.6747C93.3465 27.4197 93.678 27.2616 94.0451 27.2106C94.4122 27.1546 94.7997 27.2106 95.2128 27.3687C95.5748 27.5064 95.8705 27.7002 96.0898 27.95C96.3141 28.1999 96.4569 28.4752 96.5232 28.7811C96.5895 29.0871 96.5691 29.3981 96.462 29.7143L96.4569 29.7398L95.4371 29.3471L95.4473 29.3063C95.4779 29.1534 95.483 29.0055 95.4524 28.8678C95.4218 28.7302 95.3606 28.6078 95.2637 28.4956C95.1669 28.3885 95.0394 28.3018 94.8762 28.2406C94.6825 28.1693 94.4989 28.154 94.3204 28.1999C94.142 28.2457 93.9737 28.3528 93.8258 28.5109C93.6779 28.669 93.5505 28.8831 93.4485 29.1483V29.1534C93.3465 29.4185 93.2955 29.6633 93.3006 29.8876C93.3057 30.112 93.3567 30.2955 93.4587 30.4536C93.5607 30.6117 93.7085 30.7239 93.9023 30.8004C94.0553 30.8564 94.2031 30.8819 94.3459 30.8666C94.4887 30.8513 94.6213 30.8054 94.7385 30.7188C94.8609 30.6372 94.9629 30.5199 95.0445 30.3771L95.0598 30.3516L96.0745 30.7392L96.0643 30.7698C95.9317 31.0757 95.7379 31.3154 95.483 31.4989C95.228 31.6825 94.9323 31.7896 94.6009 31.8253C94.2694 31.8609 93.9227 31.81 93.5607 31.6723C93.1476 31.4989 92.8213 31.2797 92.5868 30.9941Z" fill="#1F3A60"/>
<path d="M98.2824 29.765L97.1861 29.2194L97.594 28.4087L100.796 30.0098L100.388 30.8205L99.292 30.2698L97.7113 33.4363L96.7017 32.9315L98.2824 29.765Z" fill="#1F3A60"/>
<path d="M101.546 30.4175L102.504 31.0192L101.122 33.2117L101.52 33.4616L100.679 33.4055L104.029 31.9778L104.84 32.4877L102.469 36.2507L101.515 35.6491L102.912 33.4361L102.474 33.1607L103.361 33.2372L99.9905 34.6854L99.1848 34.1754L101.546 30.4175Z" fill="#1F3A60"/>
<path d="M102.968 36.6181L105.727 33.1304L106.614 33.834L105.513 35.2261L105.62 35.3127L107.848 34.813L108.817 35.5779L106.079 36.1796L106.17 36.0674L106.145 39.137L105.069 38.2855L105.089 35.9807L104.982 35.894L103.855 37.3218L102.968 36.6181Z" fill="#1F3A60"/>
<path d="M110.346 37.0156L111.091 37.7448L110.413 38.4382L110.158 38.1884L107.017 39.9832L106.165 39.1521L110.346 37.0156ZM108.225 38.6575L109.745 40.1413L109.352 40.9011L107.471 39.0603L108.225 38.6575ZM110.173 38.1986L110.851 37.5051L111.341 37.9844L109.301 42.2115L108.45 41.3804L110.173 38.1986Z" fill="#1F3A60"/>
</svg>
