<svg width="593" height="76" viewBox="0 0 593 76" fill="none" xmlns="http://www.w3.org/2000/svg">
<path d="M477.573 52.2962C476.484 56.3784 481.201 59.2132 483.016 60.1204L533.363 57.399C551.506 57.6257 586.839 59.44 588.472 59.44C590.513 59.44 593.235 52.2962 592.895 52.2962C592.622 52.2962 590.74 48.6676 589.833 46.8533L592.044 31.8853L592.214 20.9995C592.214 19.1852 590.105 14.8762 587.112 12.1547C584.118 9.43327 577.7 7.39217 574.525 6.71181L577.586 2.28944L537.105 0.928711L493.221 2.28944L495.602 6.71181L490.5 8.41272C486.985 10.5672 479.75 15.4205 478.934 17.5976C478.117 19.7748 478.593 26.4424 478.934 29.504C478.934 34.1313 480.85 43.7002 480.85 45.6052C480.85 47.5102 480.408 47.7995 480.408 48.253C478.934 50.0183 478.298 49.577 477.573 52.2962Z" fill="#FFBD80"/>
<path d="M68.7443 49.9741C68.7443 48.5591 66.8766 45.3415 65.9427 43.9097C61.0188 45.9311 53.7177 50.7322 34.8709 49.9741C16.024 49.216 11.7981 45.9311 8.82679 43.9097C8.14762 43.4043 6.60059 47.1946 6.60059 47.1946C6.09122 52.7536 7.61934 60.0814 8.63808 64.1244L10.6756 67.4093L6.60058 67.662L0.742774 66.3986L5.32715 70.4415C8.4683 71.5365 16.4825 73.4737 25.4474 74.4844C36.6537 75.7479 46.5865 74.4844 57.2834 73.7264C65.8409 73.12 71.3761 69.7677 73.074 68.1673L66.9615 68.1673C66.3672 68.5043 65.5352 68.1673 66.9615 64.1244C68.7443 59.0707 68.7443 51.7429 68.7443 49.9741Z" fill="#FFBD80"/>
</svg>
